<svg xmlns="http://www.w3.org/2000/svg" xmlns:xlink="http://www.w3.org/1999/xlink" viewBox="0 0 386.74 512">
  <defs>
    <linearGradient id="a" x1="144.24475" y1="95.75525" x2="489.25779" y2="440.76829" gradientUnits="userSpaceOnUse">
      <stop offset="0" stop-color="#e0cee5"/>
      <stop offset="1" stop-color="#48c7f4"/>
    </linearGradient>
    <linearGradient id="b" x1="154.3455" y1="85.6545" x2="499.35854" y2="430.66754" xlink:href="#a"/>
    <linearGradient id="c" x1="198.0225" y1="41.9775" x2="543.03554" y2="386.99054" xlink:href="#a"/>
    <linearGradient id="d" x1="216.95925" y1="23.04075" x2="561.97229" y2="368.05379" xlink:href="#a"/>
    <linearGradient id="e" x1="237.17325" y1="2.82675" x2="582.18629" y2="347.83979" xlink:href="#a"/>
    <linearGradient id="f" x1="257.38725" y1="-17.38725" x2="602.4003" y2="327.62579" xlink:href="#a"/>
    <linearGradient id="g" x1="277.60126" y1="-37.60126" x2="622.6143" y2="307.41179" xlink:href="#a"/>
    <linearGradient id="h" x1="296.5385" y1="-56.5385" x2="641.55154" y2="288.47455" xlink:href="#a"/>
    <linearGradient id="i" x1="276.3355" y1="-36.3355" x2="621.34854" y2="308.67755" xlink:href="#a"/>
    <linearGradient id="j" x1="257.39826" y1="-17.39826" x2="602.4113" y2="327.61479" xlink:href="#a"/>
    <linearGradient id="k" x1="196.75625" y1="43.24375" x2="541.76929" y2="388.25679" xlink:href="#a"/>
    <linearGradient id="l" x1="216.97025" y1="23.02975" x2="561.98329" y2="368.0428" xlink:href="#a"/>
    <linearGradient id="m" x1="237.18425" y1="2.81575" x2="582.1973" y2="347.82879" xlink:href="#a"/>
    <linearGradient id="n" x1="177.8195" y1="62.1805" x2="522.83254" y2="407.19355" xlink:href="#a"/>
    <linearGradient id="o" x1="82.62375" y1="157.37625" x2="427.63679" y2="502.38929" xlink:href="#a"/>
    <linearGradient id="p" x1="126.301" y1="113.699" x2="471.31404" y2="458.71205" xlink:href="#a"/>
    <linearGradient id="q" x1="165.45175" y1="74.54825" x2="510.46479" y2="419.5613" xlink:href="#a"/>
    <linearGradient id="r" x1="145.23775" y1="94.76225" x2="490.25079" y2="439.77529" xlink:href="#a"/>
    <linearGradient id="s" x1="185.66575" y1="54.33425" x2="530.67879" y2="399.34729" xlink:href="#a"/>
    <linearGradient id="t" x1="205.87975" y1="34.12025" x2="550.8928" y2="379.13329" xlink:href="#a"/>
    <linearGradient id="u" x1="224.817" y1="15.183" x2="569.83004" y2="360.19605" xlink:href="#a"/>
    <linearGradient id="v" x1="204.614" y1="35.386" x2="549.62704" y2="380.39904" xlink:href="#a"/>
    <linearGradient id="w" x1="125.03475" y1="114.96525" x2="470.0478" y2="459.97829" xlink:href="#a"/>
    <linearGradient id="x" x1="145.24875" y1="94.75125" x2="490.26179" y2="439.76429" xlink:href="#a"/>
    <linearGradient id="y" x1="185.67676" y1="54.32324" x2="530.6898" y2="399.33629" xlink:href="#a"/>
    <linearGradient id="z" x1="165.46276" y1="74.53724" x2="510.4758" y2="419.55029" xlink:href="#a"/>
    <linearGradient id="aa" x1="106.098" y1="133.902" x2="451.11104" y2="478.91504" xlink:href="#a"/>
    <linearGradient id="ab" x1="193.99998" y1="399.44249" x2="297.14003" y2="399.44249" xlink:href="#a"/>
    <linearGradient id="ac" x1="299.09625" y1="398.88787" x2="318.00002" y2="398.88787" xlink:href="#a"/>
    <linearGradient id="ad" x1="224.09708" y1="399.44249" x2="287.90292" y2="399.44249" xlink:href="#a"/>
  </defs>
  <title>database</title>
  <g>
    <path d="M441.87,128.139a7.49953,7.49953,0,0,0,7.5-7.5V7.5a7.49953,7.49953,0,0,0-7.5-7.5H417.541a7.5,7.5,0,0,0,0,15H434.37v98.139H77.63V15H382.5a7.5,7.5,0,0,0,0-15H70.13a7.49953,7.49953,0,0,0-7.5,7.5V120.639a7.49954,7.49954,0,0,0,7.5,7.5h6.643v15.305H70.13a7.49953,7.49953,0,0,0-7.5,7.5V264.082a7.49953,7.49953,0,0,0,7.5,7.5h6.643v15.309H70.13a7.49953,7.49953,0,0,0-7.5,7.5v113.13a7.49953,7.49953,0,0,0,7.5,7.5h74.396a112.55717,112.55717,0,0,0,222.948-.001H441.87a7.49953,7.49953,0,0,0,7.5-7.5V294.39a7.49953,7.49953,0,0,0-7.5-7.5h-6.643V271.581h6.643a7.49953,7.49953,0,0,0,7.5-7.5V150.943a7.49953,7.49953,0,0,0-7.5-7.5h-6.643V128.138h6.643ZM77.63,400.02V301.89H199.9a112.62635,112.62635,0,0,0-56.457,97.554c0,.193.006.384.007.576H77.63ZM256,497a97.55575,97.55575,0,0,1-.308-195.111h.615A97.55575,97.55575,0,0,1,256,497ZM420.228,286.89H397.5a7.5,7.5,0,0,0,0,15h36.87v98.13H368.55c.001-.192.007-.384.007-.576A112.62852,112.62852,0,0,0,312.1,301.89h50.421a7.5,7.5,0,0,0,0-15H91.772V271.581H420.227V286.89Zm0-143.447H137.5a7.5,7.5,0,0,0,0,15H434.37v98.138H77.63V158.443h24.891a7.5,7.5,0,1,0,0-15H91.772V128.138H420.227v15.305Z" transform="translate(-62.63)" style="fill: url(#a)"/>
    <path d="M112.557,36.366a7.49953,7.49953,0,0,0-7.5,7.5V84.272a7.49953,7.49953,0,0,0,7.5,7.5h40.406a7.49953,7.49953,0,0,0,7.5-7.5V43.866a7.49953,7.49953,0,0,0-7.5-7.5Zm32.906,40.406H120.057V51.366h25.406Z" transform="translate(-62.63)" style="fill: url(#b)"/>
    <path d="M202.411,36.366h-5a7.5,7.5,0,0,0,0,15h5a7.5,7.5,0,0,0,0-15Z" transform="translate(-62.63)" style="fill: url(#c)"/>
    <path d="M242.838,36.366H232.731a7.5,7.5,0,0,0,0,15h10.107a7.5,7.5,0,0,0,0-15Z" transform="translate(-62.63)" style="fill: url(#d)"/>
    <path d="M283.266,36.366H273.159a7.5,7.5,0,0,0,0,15h10.107a7.5,7.5,0,0,0,0-15Z" transform="translate(-62.63)" style="fill: url(#e)"/>
    <path d="M323.694,36.366H313.587a7.5,7.5,0,0,0,0,15h10.107a7.5,7.5,0,0,0,0-15Z" transform="translate(-62.63)" style="fill: url(#f)"/>
    <path d="M364.122,36.366H354.015a7.5,7.5,0,0,0,0,15h10.107a7.5,7.5,0,0,0,0-15Z" transform="translate(-62.63)" style="fill: url(#g)"/>
    <path d="M386.943,43.866a7.49953,7.49953,0,0,0,7.5,7.5h5a7.5,7.5,0,0,0,0-15h-5A7.50017,7.50017,0,0,0,386.943,43.866Z" transform="translate(-62.63)" style="fill: url(#h)"/>
    <path d="M399.443,76.772h-5a7.5,7.5,0,0,0,0,15h5a7.5,7.5,0,0,0,0-15Z" transform="translate(-62.63)" style="fill: url(#i)"/>
    <path d="M364.122,76.772H354.015a7.5,7.5,0,0,0,0,15h10.107a7.5,7.5,0,0,0,0-15Z" transform="translate(-62.63)" style="fill: url(#j)"/>
    <path d="M242.838,76.772H232.731a7.5,7.5,0,0,0,0,15h10.107a7.5,7.5,0,0,0,0-15Z" transform="translate(-62.63)" style="fill: url(#k)"/>
    <path d="M283.266,76.772H273.159a7.5,7.5,0,0,0,0,15h10.107a7.5,7.5,0,0,0,0-15Z" transform="translate(-62.63)" style="fill: url(#l)"/>
    <path d="M323.694,76.772H313.587a7.5,7.5,0,0,0,0,15h10.107a7.5,7.5,0,0,0,0-15Z" transform="translate(-62.63)" style="fill: url(#m)"/>
    <path d="M202.411,76.772h-5a7.5,7.5,0,0,0,0,15h5a7.5,7.5,0,0,0,0-15Z" transform="translate(-62.63)" style="fill: url(#n)"/>
    <path d="M105.057,187.309v40.407a7.49953,7.49953,0,0,0,7.5,7.5h40.406a7.49953,7.49953,0,0,0,7.5-7.5V187.309a7.49953,7.49953,0,0,0-7.5-7.5H112.557A7.49953,7.49953,0,0,0,105.057,187.309Zm15,7.5h25.406v25.407H120.057Z" transform="translate(-62.63)" style="fill: url(#o)"/>
    <path d="M197.411,194.809h5a7.5,7.5,0,0,0,0-15h-5a7.5,7.5,0,0,0,0,15Z" transform="translate(-62.63)" style="fill: url(#p)"/>
    <path d="M273.159,194.809h10.107a7.5,7.5,0,0,0,0-15H273.159a7.5,7.5,0,0,0,0,15Z" transform="translate(-62.63)" style="fill: url(#q)"/>
    <path d="M232.731,194.809h10.107a7.5,7.5,0,1,0,0-15H232.731a7.5,7.5,0,0,0,0,15Z" transform="translate(-62.63)" style="fill: url(#r)"/>
    <path d="M313.587,194.809h10.107a7.5,7.5,0,0,0,0-15H313.587a7.5,7.5,0,0,0,0,15Z" transform="translate(-62.63)" style="fill: url(#s)"/>
    <path d="M354.015,194.809h10.107a7.5,7.5,0,0,0,0-15H354.015a7.5,7.5,0,0,0,0,15Z" transform="translate(-62.63)" style="fill: url(#t)"/>
    <path d="M394.443,194.809h5a7.5,7.5,0,0,0,0-15h-5a7.5,7.5,0,0,0,0,15Z" transform="translate(-62.63)" style="fill: url(#u)"/>
    <path d="M394.443,235.215h5a7.5,7.5,0,0,0,0-15h-5a7.5,7.5,0,0,0,0,15Z" transform="translate(-62.63)" style="fill: url(#v)"/>
    <path d="M232.731,235.215h10.107a7.5,7.5,0,0,0,0-15H232.731a7.5,7.5,0,0,0,0,15Z" transform="translate(-62.63)" style="fill: url(#w)"/>
    <path d="M273.159,235.215h10.107a7.5,7.5,0,0,0,0-15H273.159a7.5,7.5,0,0,0,0,15Z" transform="translate(-62.63)" style="fill: url(#x)"/>
    <path d="M354.015,235.215h10.107a7.5,7.5,0,0,0,0-15H354.015a7.5,7.5,0,0,0,0,15Z" transform="translate(-62.63)" style="fill: url(#y)"/>
    <path d="M313.587,235.215h10.107a7.5,7.5,0,0,0,0-15H313.587a7.5,7.5,0,0,0,0,15Z" transform="translate(-62.63)" style="fill: url(#z)"/>
    <path d="M197.411,235.215h5a7.5,7.5,0,0,0,0-15h-5a7.5,7.5,0,0,0,0,15Z" transform="translate(-62.63)" style="fill: url(#aa)"/>
  </g>
  <g>
    <path d="M295.69642,360.26865a6.62915,6.62915,0,0,0-1.044-9.30541A61.34674,61.34674,0,0,0,256,337.44247a62,62,0,1,0,0,124,61.38432,61.38432,0,0,0,38.11515-13.09693,6.62078,6.62078,0,0,0-4.07251-11.84133,6.65857,6.65857,0,0,0-4.07369,1.4014A48.2714,48.2714,0,0,1,256,448.19978a48.75729,48.75729,0,0,1,0-97.51458,48.23036,48.23036,0,0,1,30.38984,10.62744,6.62221,6.62221,0,0,0,9.30658-1.044Z" transform="translate(-62.63)" style="fill: url(#ab)"/>
    <path d="M311.65846,372.09881a6.62122,6.62122,0,1,0-11.88247,5.84542,48.89,48.89,0,0,1,.46792,42.01719,6.62326,6.62326,0,0,0,6.0006,9.41475,6.64981,6.64981,0,0,0,6.00767-3.8315,62.13126,62.13126,0,0,0-.59372-53.44586Z" transform="translate(-62.63)" style="fill: url(#ac)"/>
    <path d="M256,367.53957a31.90292,31.90292,0,1,0,31.90292,31.90292A31.93881,31.93881,0,0,0,256,367.53957Zm0,13.24272a18.63484,18.63484,0,0,1,14.25262,6.62313,12.03894,12.03894,0,0,0-.00118,24.07473A18.658,18.658,0,1,1,256,380.78229Z" transform="translate(-62.63)" style="fill: url(#ad)"/>
  </g>
</svg>
