<svg xmlns="http://www.w3.org/2000/svg" xmlns:xlink="http://www.w3.org/1999/xlink" viewBox="0 0 512 511.99896">
  <defs>
    <linearGradient id="a" x1="53.81554" y1="27.18446" x2="481.31817" y2="454.6871" gradientUnits="userSpaceOnUse">
      <stop offset="0" stop-color="#f9ec31"/>
      <stop offset="1" stop-color="#48c7f4"/>
    </linearGradient>
    <linearGradient id="b" x1="-72.07517" y1="153.07517" x2="355.42746" y2="580.5778" xlink:href="#a"/>
    <linearGradient id="c" x1="-70.41972" y1="151.41972" x2="357.08291" y2="578.92235" xlink:href="#a"/>
    <linearGradient id="d" x1="91.69997" y1="-10.69997" x2="519.2026" y2="416.80266" xlink:href="#a"/>
    <linearGradient id="e" x1="-138.69977" y1="219.69977" x2="288.80286" y2="647.2024" xlink:href="#a"/>
    <linearGradient id="f" x1="-10.69977" y1="91.69977" x2="416.80286" y2="519.2024" xlink:href="#a"/>
    <linearGradient id="g" x1="91.69991" y1="-10.69991" x2="519.20254" y2="416.80272" xlink:href="#a"/>
    <linearGradient id="h" x1="119.94622" y1="-38.94622" x2="547.44885" y2="388.55641" xlink:href="#a"/>
    <linearGradient id="i" x1="91.7" y1="-10.7" x2="519.20263" y2="416.80263" xlink:href="#a"/>
  </defs>
  <title>income</title>
  <g>
    <path d="M344.277,343.424c-.819.708-20.011,17.707-20.011,49.109V435.2a8.533,8.533,0,0,0,17.066,0V392.533c0-23.33,13.594-35.738,14.566-36.634l59.733-59.733a18.00047,18.00047,0,0,1,11.895-5.521,14.46134,14.46134,0,0,1,11.204,4.488,14.68755,14.68755,0,0,1,4.489,11.204,17.99628,17.99628,0,0,1-5.521,11.895L395.034,360.9A8.532,8.532,0,0,0,407.1,372.966l42.667-42.658a35.0773,35.0773,0,0,0,10.513-23.279,32.42673,32.42673,0,0,0-33.451-33.443,35.03686,35.03686,0,0,0-23.262,10.513Z" style="fill: url(#a)"/>
    <path d="M93.867,435.2A8.533,8.533,0,0,0,99.9,420.634l-68.753-68.71c-.572-.503-14.08-12.553-14.08-36.19v-128a17.067,17.067,0,0,1,34.134,0v67.558a8.533,8.533,0,1,0,17.066,0V187.734A34.1335,34.1335,0,0,0,0,187.733v128c0,31.863,19.277,48.495,19.567,48.7L87.834,432.7A8.50872,8.50872,0,0,0,93.867,435.2Z" style="fill: url(#b)"/>
    <path d="M51.721,307.029a35.03726,35.03726,0,0,0,10.513,23.27l42.667,42.667A8.532,8.532,0,1,0,116.967,360.9L74.3,318.225a17.961,17.961,0,0,1-5.521-11.887,14.68251,14.68251,0,0,1,4.489-11.204,14.49879,14.49879,0,0,1,11.204-4.488,17.99626,17.99626,0,0,1,11.895,5.521l60.134,60.109c.572.521,14.165,12.928,14.165,36.258V435.2a8.533,8.533,0,0,0,17.066,0V392.533c0-31.403-19.191-48.401-19.567-48.7L108.433,284.1a35.03688,35.03688,0,0,0-23.262-10.513,32.4251,32.4251,0,0,0-33.45,33.442Z" style="fill: url(#c)"/>
    <path d="M256,110.933A17.08411,17.08411,0,0,1,273.067,128a8.533,8.533,0,1,0,17.066,0,34.09564,34.09564,0,0,0-25.6-32.922V93.866a8.533,8.533,0,0,0-17.066,0v1.212a34.06138,34.06138,0,0,0,8.533,67.055,17.067,17.067,0,1,1-17.067,17.067,8.533,8.533,0,1,0-17.066,0,34.09563,34.09563,0,0,0,25.6,32.922v1.212a8.533,8.533,0,0,0,17.066,0v-1.212a34.06137,34.06137,0,0,0-8.533-67.055A17.067,17.067,0,1,1,256,110.933Z" style="fill: url(#d)"/>
    <path d="M196.267,460.8H59.733a8.53062,8.53062,0,0,0-8.533,8.533v34.133a8.533,8.533,0,0,0,17.066,0v-25.6H187.733v25.6a8.533,8.533,0,0,0,17.066,0V469.333A8.52915,8.52915,0,0,0,196.267,460.8Z" style="fill: url(#e)"/>
    <path d="M452.267,460.8H315.733a8.53062,8.53062,0,0,0-8.533,8.533v34.133a8.533,8.533,0,0,0,17.066,0v-25.6H443.733v25.6a8.533,8.533,0,1,0,17.066,0V469.333A8.52911,8.52911,0,0,0,452.267,460.8Z" style="fill: url(#f)"/>
    <path d="M256,34.133A119.467,119.467,0,1,0,375.467,153.6,119.59824,119.59824,0,0,0,256,34.133ZM256,256A102.4,102.4,0,1,1,358.4,153.6,102.5141,102.5141,0,0,1,256,256Z" style="fill: url(#g)"/>
    <path d="M477.867,153.6a34.16714,34.16714,0,0,0-34.133,34.133v67.558a8.533,8.533,0,1,0,17.066,0V187.733a17.067,17.067,0,1,1,34.134,0v128c0,23.637-13.508,35.686-14.566,36.634L412.1,420.634A8.53195,8.53195,0,1,0,424.166,432.7l67.738-67.78c.819-.691,20.096-17.323,20.096-49.186v-128A34.168,34.168,0,0,0,477.867,153.6Z" style="fill: url(#h)"/>
    <path d="M409.6,153.6C409.6,68.907,340.693,0,256,0S102.4,68.907,102.4,153.6,171.307,307.2,256,307.2,409.6,238.293,409.6,153.6ZM256,290.133c-75.281,0-136.533-61.252-136.533-136.533S180.719,17.067,256,17.067,392.533,78.319,392.533,153.6,331.281,290.133,256,290.133Z" style="fill: url(#i)"/>
  </g>
</svg>
