<svg xmlns="http://www.w3.org/2000/svg" xmlns:xlink="http://www.w3.org/1999/xlink" viewBox="0 0 380.31298 512">
  <defs>
    <linearGradient id="a" x1="71.98044" y1="226.01956" x2="374.7807" y2="528.81983" gradientUnits="userSpaceOnUse">
      <stop offset="0" stop-color="#e0cee5"/>
      <stop offset="1" stop-color="#48c7f4"/>
    </linearGradient>
    <linearGradient id="b" x1="242.19369" y1="55.80631" x2="544.99395" y2="358.60657" xlink:href="#a"/>
    <linearGradient id="c" x1="174.391" y1="123.609" x2="477.19126" y2="426.40927" xlink:href="#a"/>
    <linearGradient id="d" x1="78.426" y1="219.574" x2="381.22626" y2="522.37427" xlink:href="#a"/>
    <linearGradient id="e" x1="190.04885" y1="107.95115" x2="492.84911" y2="410.75142" xlink:href="#a"/>
    <linearGradient id="f" x1="212.27234" y1="85.72766" x2="515.07261" y2="388.52792" xlink:href="#a"/>
    <linearGradient id="g" x1="192.06934" y1="105.93066" x2="494.8696" y2="408.73092" xlink:href="#a"/>
    <linearGradient id="h" x1="171.86584" y1="126.13416" x2="474.66611" y2="428.93442" xlink:href="#a"/>
    <linearGradient id="i" x1="151.66285" y1="146.33715" x2="454.46311" y2="449.13742" xlink:href="#a"/>
    <linearGradient id="j" x1="74.30235" y1="223.69765" x2="377.10262" y2="526.49791" xlink:href="#a"/>
  </defs>
  <title>insurance</title>
  <g>
    <path d="M438.656,308.078a7.49889,7.49889,0,0,0-7.5,7.5V497H80.844V105.427a7.5,7.5,0,0,0-15,0V504.5a7.49889,7.49889,0,0,0,7.5,7.5H438.657a7.49888,7.49888,0,0,0,7.5-7.5V315.578A7.501,7.501,0,0,0,438.656,308.078Z" transform="translate(-65.844)" style="fill: url(#a)"/>
    <path d="M443.96,63.422,382.734,2.196A7.5019,7.5019,0,0,0,377.431,0H73.344a7.49889,7.49889,0,0,0-7.5,7.5v63a7.5,7.5,0,0,0,15,0V15H369.911V68.727a7.49889,7.49889,0,0,0,7.5,7.5h53.745v204.2a7.5,7.5,0,0,0,15,0V68.726A7.50228,7.50228,0,0,0,443.96,63.422Zm-59.049-2.195V25.607L420.53,61.226H384.911Z" transform="translate(-65.844)" style="fill: url(#b)"/>
    <path d="M409.216,315.578V285.273a7.49888,7.49888,0,0,0-7.5-7.5H300.699a7.49888,7.49888,0,0,0-7.5,7.5v30.305a7.49888,7.49888,0,0,0,7.5,7.5H401.716A7.49953,7.49953,0,0,0,409.216,315.578Zm-15-7.5H308.199V292.773h86.017Z" transform="translate(-65.844)" style="fill: url(#c)"/>
    <path d="M101.269,315.578a7.49889,7.49889,0,0,0,7.5,7.5H209.786a7.49889,7.49889,0,0,0,7.5-7.5V285.273a7.49889,7.49889,0,0,0-7.5-7.5H108.769a7.49889,7.49889,0,0,0-7.5,7.5Zm15-22.805h86.017v15.305H116.269Z" transform="translate(-65.844)" style="fill: url(#d)"/>
    <path d="M109.779,75.588h80.813a7.5,7.5,0,1,0,0-15H109.779a7.5,7.5,0,0,0,0,15Z" transform="translate(-65.844)" style="fill: url(#e)"/>
    <path d="M109.779,136.198H400.706a7.5,7.5,0,0,0,0-15H109.779a7.5,7.5,0,0,0,0,15Z" transform="translate(-65.844)" style="fill: url(#f)"/>
    <path d="M109.779,176.604H400.706a7.5,7.5,0,0,0,0-15H109.779a7.5,7.5,0,0,0,0,15Z" transform="translate(-65.844)" style="fill: url(#g)"/>
    <path d="M109.779,217.011H400.706a7.5,7.5,0,0,0,0-15H109.779a7.5,7.5,0,1,0,0,15Z" transform="translate(-65.844)" style="fill: url(#h)"/>
    <path d="M109.779,257.417H400.706a7.5,7.5,0,0,0,0-15H109.779a7.5,7.5,0,0,0,0,15Z" transform="translate(-65.844)" style="fill: url(#i)"/>
    <path d="M221.594,474.219a7.48986,7.48986,0,0,0,6.799.983l26.85-9.258,26.85,9.258a7.50019,7.50019,0,0,0,9.944-7.09V428.069a58.008,58.008,0,1,0-73.59,0v40.044A7.497,7.497,0,0,0,221.594,474.219Zm55.443-16.626-19.35-6.672a7.494,7.494,0,0,0-4.891,0l-19.35,6.672V437.002a57.827,57.827,0,0,0,43.59.001v20.59Zm-64.803-74.334a43.0085,43.0085,0,1,1,43.008,43.008A43.05631,43.05631,0,0,1,212.234,383.259Z" transform="translate(-65.844)" style="fill: url(#j)"/>
  </g>
</svg>
