<svg xmlns="http://www.w3.org/2000/svg" xmlns:xlink="http://www.w3.org/1999/xlink" viewBox="0 0 351.54002 512">
  <defs>
    <linearGradient id="a" x1="53.47109" y1="62.52891" x2="383.56805" y2="392.62586" gradientUnits="userSpaceOnUse">
      <stop offset="0" stop-color="#f9ec31"/>
      <stop offset="1" stop-color="#48c7f4"/>
    </linearGradient>
    <linearGradient id="b" x1="73.69099" y1="154.30901" x2="411.98081" y2="492.59882" xlink:href="#a"/>
    <linearGradient id="c" x1="72.87152" y1="155.12848" x2="411.16134" y2="493.4183" xlink:href="#a"/>
  </defs>
  <title>lock</title>
  <path d="M387.965,220.139V131.966C387.965,59.199,328.766,0,256,0S124.035,59.199,124.035,131.965v88.173A175.22292,175.22292,0,0,0,80.23,336.23C80.23,433.15,159.08,512,256,512s175.77-78.85,175.77-175.77A175.2204,175.2204,0,0,0,387.965,220.139ZM144.433,131.965a111.567,111.567,0,1,1,223.134,0v68.453a175.5956,175.5956,0,0,0-23.982-16.592V131.965a87.585,87.585,0,1,0-175.17,0v51.861a175.56511,175.56511,0,0,0-23.982,16.592V131.965Zm178.753,0v41.828a175.94406,175.94406,0,0,0-134.372,0V131.965a67.186,67.186,0,1,1,134.372,0ZM256,491.602c-85.672,0-155.372-69.699-155.372-155.372A155.33206,155.33206,0,0,1,370.267,230.966h-.001A154.897,154.897,0,0,1,411.372,336.23C411.372,421.902,341.672,491.602,256,491.602Z" transform="translate(-80.23)" style="fill: url(#a)"/>
  <path d="M256,235.602A101.016,101.016,0,1,0,357.016,336.618,101.13092,101.13092,0,0,0,256,235.602Zm0,181.633a80.6175,80.6175,0,1,1,80.618-80.617A80.7092,80.7092,0,0,1,256,417.235Z" transform="translate(-80.23)" style="fill: url(#b)"/>
  <path d="M270.613,338.447l22.111-22.111a10.19929,10.19929,0,1,0-14.423-14.425L256.19,324.022l-22.111-22.111a10.2,10.2,0,0,0-14.425,14.425l22.111,22.111-22.111,22.111a10.19966,10.19966,0,0,0,14.424,14.425l22.111-22.111,22.111,22.111a10.19966,10.19966,0,1,0,14.424-14.425Z" transform="translate(-80.23)" style="fill: url(#c)"/>
</svg>
