<svg xmlns="http://www.w3.org/2000/svg" xmlns:xlink="http://www.w3.org/1999/xlink" viewBox="0 0 469.57386 511.99899">
  <defs>
    <linearGradient id="a" x1="573.82399" y1="168.15136" x2="636.82399" y2="178.15136" gradientUnits="userSpaceOnUse">
      <stop offset="0" stop-color="#e0cee5"/>
      <stop offset="1" stop-color="#48c7f4"/>
    </linearGradient>
    <linearGradient id="b" x1="575.24754" y1="159.18297" x2="638.24754" y2="169.18297" xlink:href="#a"/>
    <linearGradient id="c" x1="573.82277" y1="168.15904" x2="636.82277" y2="178.15904" xlink:href="#a"/>
    <linearGradient id="d" x1="21.21307" y1="255.9995" x2="490.78693" y2="255.9995" xlink:href="#a"/>
    <linearGradient id="e" x1="387.90323" y1="137.20448" x2="467.55322" y2="137.20448" xlink:href="#a"/>
    <linearGradient id="f" x1="44.44818" y1="137.20449" x2="124.09819" y2="137.20449" xlink:href="#a"/>
  </defs>
  <title>reward</title>
  <g>
    <g>
      <path d="M299.03314,75.24435a7.18637,7.18637,0,0,0-1.13174-10.08759A66.50327,66.50327,0,0,0,256,50.4995a67.21148,67.21148,0,1,0,0,134.423,66.544,66.544,0,0,0,41.31895-14.19781,7.17729,7.17729,0,0,0-4.41483-12.83666,7.21823,7.21823,0,0,0-4.4161,1.51919A52.32891,52.32891,0,0,1,256,170.56662a52.85564,52.85564,0,1,1,0-105.71127A52.28434,52.28434,0,0,1,288.94428,76.3761a7.17885,7.17885,0,0,0,10.08886-1.13175Z" transform="translate(-21.21307)" style="fill: url(#a)"/>
      <path d="M316.33689,88.0689a7.17777,7.17777,0,1,0-12.88127,6.33677,52.99934,52.99934,0,0,1,.50725,45.549,7.18,7.18,0,0,0,6.505,10.20611,7.20875,7.20875,0,0,0,6.51265-4.15356,67.35379,67.35379,0,0,0-.64362-57.9383Z" transform="translate(-21.21307)" style="fill: url(#b)"/>
      <path d="M256,83.12643A34.58455,34.58455,0,1,0,290.58455,117.711,34.62346,34.62346,0,0,0,256,83.12643Zm0,14.35585a20.20123,20.20123,0,0,1,15.45064,7.17984,13.05089,13.05089,0,0,0-.00128,26.09836A20.22636,20.22636,0,1,1,256,97.48228Z" transform="translate(-21.21307)" style="fill: url(#c)"/>
    </g>
    <g>
      <path d="M489.68017,281.374l-46.467-75.763a7.49993,7.49993,0,0,0-6.394-3.579h-96.504a118.62,118.62,0,1,0-168.63,0h-34.185a7.5,7.5,0,0,0,0,15h105.102l-37.267,60.763H75.27718c-.033,0-.064-.005-.097-.005s-.064.004-.097.005h-32.971l37.267-60.763h23.059a7.5,7.5,0,0,0,0-15h-27.257a7.50117,7.50117,0,0,0-6.394,3.579l-46.467,75.763a7.50021,7.50021,0,0,0,6.393,11.421h38.967v57.768a7.5,7.5,0,0,0,15,0V292.795h126.853a7.49951,7.49951,0,0,0,6.393-3.579l32.574-53.111V495.639l-165.82-27.786V385.5a7.5,7.5,0,0,0-15,0v88.7a7.49846,7.49846,0,0,0,6.261,7.396l180.697,30.279c.026.005.053.009.079.013l.044.007.027.002a7.37827,7.37827,0,0,0,1.203.102l.015-.001a7.39494,7.39494,0,0,0,1.182-.099c.017-.003.034-.001.051-.004l180.82-30.3a7.49842,7.49842,0,0,0,6.261-7.396v-88.7a7.5,7.5,0,0,0-15,0v82.353l-165.82,27.787V236.105l32.574,53.111a7.49952,7.49952,0,0,0,6.393,3.579h126.853v57.768a7.5,7.5,0,0,0,15,0V292.795h38.967a7.50017,7.50017,0,0,0,6.393-11.421Zm-295.141-79.342a103.61949,103.61949,0,1,1,122.923,0h-122.923Zm242.378,75.763c-.033,0-.064-.005-.097-.005s-.064.004-.097.005h-130.057l-37.267-60.763h163.223l37.267,60.763Z" transform="translate(-21.21307)" style="fill: url(#d)"/>
      <path d="M392.04919,143.913l14.403,7.202a8.64384,8.64384,0,0,1,4.212,4.639l10.064,26.166a7.49967,7.49967,0,0,0,14,0l10.066-26.172a8.636,8.636,0,0,1,4.212-4.634l14.401-7.201a7.4996,7.4996,0,0,0,0-13.416l-14.403-7.202a8.64007,8.64007,0,0,1-4.21-4.634l-10.066-26.172a7.49967,7.49967,0,0,0-14,0l-10.064,26.167a8.64557,8.64557,0,0,1-4.211,4.639l-14.404,7.202a7.49963,7.49963,0,0,0,0,13.416Zm21.113-7.202a23.604,23.604,0,0,0,11.502-12.67l3.064-7.967,3.066,7.972a23.60189,23.60189,0,0,0,11.501,12.665l.988.494-.985.492a23.60225,23.60225,0,0,0-11.504,12.666l-3.066,7.972-3.064-7.966a23.61333,23.61333,0,0,0-11.504-12.671l-.986-.493Z" transform="translate(-21.21307)" style="fill: url(#e)"/>
      <path d="M48.59418,143.913l14.403,7.202a8.63453,8.63453,0,0,1,4.21,4.633l10.066,26.172a7.49967,7.49967,0,0,0,14,0l10.064-26.166a8.6507,8.6507,0,0,1,4.213-4.64l14.402-7.201a7.49959,7.49959,0,0,0,0-13.416l-14.404-7.202a8.63823,8.63823,0,0,1-4.211-4.639l-10.064-26.167a7.49967,7.49967,0,0,0-14,0l-10.066,26.172a8.63824,8.63824,0,0,1-4.209,4.634l-14.404,7.202a7.49959,7.49959,0,0,0,0,13.416Zm21.112-7.202a23.60541,23.60541,0,0,0,11.501-12.665l3.066-7.972,3.064,7.967a23.61265,23.61265,0,0,0,11.503,12.67l.988.494-.985.492a23.6078,23.6078,0,0,0-11.506,12.672l-3.064,7.966-3.066-7.972a23.59895,23.59895,0,0,0-11.503-12.665l-.986-.493Z" transform="translate(-21.21307)" style="fill: url(#f)"/>
    </g>
  </g>
</svg>
