<svg xmlns="http://www.w3.org/2000/svg" xmlns:xlink="http://www.w3.org/1999/xlink" viewBox="0 0 512.00098 398.86099">
  <defs>
    <linearGradient id="a" x1="99.59327" y1="180.40673" x2="448.3525" y2="529.16596" gradientUnits="userSpaceOnUse">
      <stop offset="0" stop-color="#e0cee5"/>
      <stop offset="1" stop-color="#48c7f4"/>
    </linearGradient>
    <linearGradient id="b" x1="279.40247" y1="0.59753" x2="628.16169" y2="349.35676" xlink:href="#a"/>
    <linearGradient id="c" x1="111.71516" y1="168.28484" x2="460.47439" y2="517.04407" xlink:href="#a"/>
    <linearGradient id="d" x1="99.48083" y1="180.51917" x2="448.24006" y2="529.27839" xlink:href="#a"/>
    <linearGradient id="e" x1="124.8625" y1="155.1375" x2="473.62173" y2="503.89672" xlink:href="#a"/>
    <linearGradient id="f" x1="99.59325" y1="180.40675" x2="448.35248" y2="529.16598" xlink:href="#a"/>
  </defs>
  <title>transfer</title>
  <g>
    <g>
      <path d="M509.2225,330.987l-74.766-60.61a7.49958,7.49958,0,0,0-12.222,5.827v22.805h-53.795a118.62878,118.62878,0,0,0-224.88,0h-9.998a7.5,7.5,0,0,0,0,15h6.028a118.852,118.852,0,0,0-.001,45.611h-57.323a7.49953,7.49953,0,0,0-7.5,7.5v14.57l-55.356-44.877,55.356-44.876v14.57a7.49953,7.49953,0,0,0,7.5,7.5h16.15a7.5,7.5,0,0,0,0-15h-8.65V276.202a7.50012,7.50012,0,0,0-12.223-5.827l-74.766,60.61a7.50191,7.50191,0,0,0,0,11.654l74.766,60.609a7.49944,7.49944,0,0,0,12.223-5.826V374.617h53.794a118.62878,118.62878,0,0,0,224.88,0h9.998a7.5,7.5,0,0,0,0-15h-6.028a118.8512,118.8512,0,0,0-.001-45.611h57.325a7.49888,7.49888,0,0,0,7.5-7.5V291.937l55.355,44.875-55.355,44.875v-14.57a7.49889,7.49889,0,0,0-7.5-7.5h-16.151a7.5,7.5,0,0,0,0,15h8.651v22.805a7.49991,7.49991,0,0,0,12.223,5.826l74.766-60.609a7.49981,7.49981,0,0,0,0-11.652Zm-253.223,109.444a103.618,103.618,0,1,1,103.618-103.618A103.73469,103.73469,0,0,1,255.99951,440.431Z" transform="translate(0.00049 -56.569)" style="fill: url(#a)"/>
      <path d="M423.6875,233.195a88.313,88.313,0,1,0-88.313-88.313A88.4136,88.4136,0,0,0,423.6875,233.195Zm-42.703-28.776v-18.12a17.00773,17.00773,0,0,1,16.988-16.989h51.427a17.00773,17.00773,0,0,1,16.988,16.989v18.12a73.069,73.069,0,0,1-85.403,0Zm25.688-67.098V120.883a16.98851,16.98851,0,0,1,33.977,0v16.438a16.98851,16.98851,0,0,1-33.977,0Zm17.015-65.752a73.253,73.253,0,0,1,57.702,118.457v-3.727a32.02408,32.02408,0,0,0-30.663-31.956,31.79141,31.79141,0,0,0,4.925-17.022V120.883a31.98851,31.98851,0,0,0-63.977,0v16.438a31.7925,31.7925,0,0,0,4.925,17.023,32.02526,32.02526,0,0,0-30.613,31.954v3.726A73.25151,73.25151,0,0,1,423.6875,71.569Z" transform="translate(0.00049 -56.569)" style="fill: url(#b)"/>
      <path d="M88.31252,233.195a88.313,88.313,0,1,0-88.313-88.313A88.413,88.413,0,0,0,88.31252,233.195Zm-42.702-28.776v-18.12a17.008,17.008,0,0,1,16.989-16.989h51.427a17.008,17.008,0,0,1,16.989,16.989v18.12a73.06775,73.06775,0,0,1-85.405,0Zm25.688-67.098V120.883a16.989,16.989,0,0,1,33.978,0v16.438a16.989,16.989,0,0,1-33.978,0Zm17.014-65.752a73.25227,73.25227,0,0,1,57.702,118.456v-3.726a32.02478,32.02478,0,0,0-30.663-31.956,31.79166,31.79166,0,0,0,4.925-17.022V120.883a31.989,31.989,0,0,0-63.978,0v16.438a31.78452,31.78452,0,0,0,4.926,17.023,32.02473,32.02473,0,0,0-30.614,31.954v3.726a73.25149,73.25149,0,0,1,57.702-118.455Z" transform="translate(0.00049 -56.569)" style="fill: url(#c)"/>
    </g>
    <g>
      <path d="M295.69592,297.63917a6.62915,6.62915,0,0,0-1.044-9.30541A61.3467,61.3467,0,0,0,255.9995,274.813a62,62,0,1,0,0,124,61.38429,61.38429,0,0,0,38.11515-13.09694,6.62078,6.62078,0,0,0-4.07252-11.84133,6.65862,6.65862,0,0,0-4.07369,1.4014A48.27132,48.27132,0,0,1,255.9995,385.5703a48.7573,48.7573,0,1,1,0-97.51459,48.23034,48.23034,0,0,1,30.38983,10.62745,6.62222,6.62222,0,0,0,9.30659-1.044Z" transform="translate(0.00049 -56.569)" style="fill: url(#d)"/>
      <path d="M311.658,309.46932a6.62122,6.62122,0,1,0-11.88247,5.84542,48.88993,48.88993,0,0,1,.46791,42.01719,6.62327,6.62327,0,0,0,6.00061,9.41475,6.64979,6.64979,0,0,0,6.00766-3.8315,62.13131,62.13131,0,0,0-.59371-53.44586Z" transform="translate(0.00049 -56.569)" style="fill: url(#e)"/>
      <path d="M255.9995,304.91008A31.90292,31.90292,0,1,0,287.90242,336.813,31.93881,31.93881,0,0,0,255.9995,304.91008Zm0,13.24272a18.63487,18.63487,0,0,1,14.25262,6.62313,12.03894,12.03894,0,0,0-.00118,24.07474A18.658,18.658,0,1,1,255.9995,318.1528Z" transform="translate(0.00049 -56.569)" style="fill: url(#f)"/>
    </g>
  </g>
</svg>
