<svg xmlns="http://www.w3.org/2000/svg" xmlns:xlink="http://www.w3.org/1999/xlink" viewBox="0 0 494.93333 512">
  <defs>
    <linearGradient id="a" x1="-19.91111" y1="99.55556" x2="374.35495" y2="493.82162" gradientUnits="userSpaceOnUse">
      <stop offset="0" stop-color="#f9ec31"/>
      <stop offset="1" stop-color="#48c7f4"/>
    </linearGradient>
    <linearGradient id="b" x1="106.11555" y1="-26.47111" x2="500.38161" y2="367.79496" xlink:href="#a"/>
    <linearGradient id="c" x1="61.15556" y1="18.48889" x2="455.42162" y2="412.75495" xlink:href="#a"/>
    <linearGradient id="d" x1="-10.09778" y1="89.74222" x2="384.16828" y2="484.00829" xlink:href="#a"/>
    <linearGradient id="e" x1="196.83555" y1="-117.19111" x2="591.10162" y2="277.07496" xlink:href="#a"/>
    <linearGradient id="f" x1="236.08889" y1="-164.97778" x2="630.35495" y2="229.28829" xlink:href="#a"/>
    <linearGradient id="g" x1="253.15556" y1="-182.04444" x2="647.42162" y2="212.22162" xlink:href="#a"/>
    <linearGradient id="h" x1="39.82222" y1="31.28889" x2="434.08829" y2="425.55495" xlink:href="#a"/>
    <linearGradient id="i" x1="56.88889" y1="14.22222" x2="451.15495" y2="408.48829" xlink:href="#a"/>
  </defs>
  <title>vesting</title>
  <g>
    <path d="M494.93333,238.93333H375.46667c-5.12,0-8.53334,3.41333-8.53334,8.53334V366.93333H256c-5.12,0-8.53333,3.41335-8.53333,8.53334V409.6h-102.4V290.13333c0-5.12-3.41333-8.53333-8.53334-8.53333H17.06667c-5.12,0-8.53334,3.41335-8.53334,8.53333V503.46667c0,5.12,3.41334,8.53333,8.53334,8.53333H494.93333c5.12,0,8.53334-3.41335,8.53334-8.53333v-256C503.46667,242.34666,500.05332,238.93333,494.93333,238.93333Zm-230.4,187.73334h102.4v25.6h-102.4ZM486.4,324.26667H384v-25.6H486.4ZM384,341.33333H486.4v25.6H384ZM486.4,384v25.6H384V384ZM384,426.66667H486.4v25.6H384ZM384,256H486.4v25.6H384ZM264.53333,384h102.4v25.6h-102.4Zm-17.06666,68.26667h-102.4v-25.6h102.4ZM128,409.6H25.6V384H128Zm0-42.66667H25.6v-25.6H128ZM25.6,426.66667H128v25.6H25.6Zm0-128H128v25.6H25.6Zm0,170.66666H128v25.6H25.6Zm119.46667,0h102.4v25.6h-102.4Zm119.46666,0h102.4v25.6h-102.4Zm221.86667,25.6H384v-25.6H486.4Z" transform="translate(-8.53333)" style="fill: url(#a)"/>
    <path d="M179.2,102.4h34.13333a50.8807,50.8807,0,0,0,34.13334-12.8v29.86667C199.68,123.73333,162.13333,163.84,162.13333,212.48a93.86667,93.86667,0,1,0,187.73334,0c0-49.49332-37.54668-88.74666-85.33334-93.01333V89.6a50.88079,50.88079,0,0,0,34.13334,12.8H332.8c29.01335,0,51.2-22.18667,51.2-51.2S361.81335,0,332.8,0H298.66667A51.02277,51.02277,0,0,0,256,22.18668,51.02271,51.02271,0,0,0,213.33333,0H179.2C150.18667,0,128,22.18667,128,51.2S150.18667,102.4,179.2,102.4ZM332.8,213.33333a76.8,76.8,0,1,1-76.8-76.8A76.48067,76.48067,0,0,1,332.8,213.33333ZM298.66667,17.06667H332.8a34.13333,34.13333,0,0,1,0,68.26666H298.66667c-16.21335,0-29.01333-11.09333-33.28-25.6h58.88V42.66667h-58.88C269.65334,28.16,282.45332,17.06667,298.66667,17.06667Zm-119.46667,0h34.13333c16.21333,0,29.01333,11.09333,33.28,25.6h-58.88V59.73333h58.88c-3.41333,14.50667-17.06667,25.6-33.28,25.6H179.2a34.13333,34.13333,0,0,1,0-68.26666Z" transform="translate(-8.53333)" style="fill: url(#b)"/>
    <path d="M247.46667,153.6v17.06667h-8.53334c-10.24,0-17.06666,6.82666-17.06666,17.06666V204.8c0,10.24,6.82666,17.06667,17.06666,17.06667h34.13334v17.06666H238.93333V230.4H221.86667v8.53333c0,10.24,6.82666,17.06667,17.06666,17.06667h8.53334v17.06667h17.06666V256h8.53334c10.24,0,17.06666-6.82666,17.06666-17.06667V221.86667c0-10.24-6.82666-17.06667-17.06666-17.06667H238.93333V187.73333h34.13334v8.53334h17.06666v-8.53334c0-10.24-6.82666-17.06666-17.06666-17.06666h-8.53334V153.6Z" transform="translate(-8.53333)" style="fill: url(#c)"/>
    <path d="M59.73333,256a7.74688,7.74688,0,0,0,5.97334-2.56l25.6-25.6L79.36,215.89334,68.26667,226.98667v-158.72H51.2v158.72L40.10667,215.89334,28.16,227.84l25.6,25.6A7.74686,7.74686,0,0,0,59.73333,256Z" transform="translate(-8.53333)" style="fill: url(#d)"/>
    <path d="M452.26667,213.33333a7.74688,7.74688,0,0,0,5.97334-2.56l25.6-25.6-11.94668-11.94666L460.8,184.32V68.26667H443.73333V184.32L432.64,173.22668l-11.94668,11.94666,25.6,25.6A7.74685,7.74685,0,0,0,452.26667,213.33333Z" transform="translate(-8.53333)" style="fill: url(#e)"/>
    <rect x="435.2" y="34.13333" width="17.06667" height="17.06667" style="fill: url(#f)"/>
    <rect x="435.2" width="17.06667" height="17.06667" style="fill: url(#g)"/>
    <rect x="42.66667" y="34.13333" width="17.06667" height="17.06667" style="fill: url(#h)"/>
    <rect x="42.66667" width="17.06667" height="17.06667" style="fill: url(#i)"/>
  </g>
</svg>
