<svg xmlns="http://www.w3.org/2000/svg" xmlns:xlink="http://www.w3.org/1999/xlink" viewBox="0 0 465.53701 512.00104">
  <defs>
    <linearGradient id="a" x1="272.36291" y1="7.63709" x2="624.22778" y2="359.50196" gradientUnits="userSpaceOnUse">
      <stop offset="0" stop-color="#e0cee5"/>
      <stop offset="1" stop-color="#48c7f4"/>
    </linearGradient>
    <linearGradient id="b" x1="180.91024" y1="99.08976" x2="532.77511" y2="450.95463" xlink:href="#a"/>
    <linearGradient id="c" x1="151.61469" y1="128.38531" x2="503.47956" y2="480.25018" xlink:href="#a"/>
    <linearGradient id="d" x1="208.69199" y1="48.07601" x2="560.55687" y2="399.94088" xlink:href="#a"/>
    <linearGradient id="e" x1="151.78115" y1="128.21885" x2="503.64602" y2="480.08373" xlink:href="#a"/>
    <linearGradient id="f" x1="177.16282" y1="102.83718" x2="529.02769" y2="454.70206" xlink:href="#a"/>
    <linearGradient id="g" x1="151.89356" y1="128.10644" x2="503.75843" y2="479.97131" xlink:href="#a"/>
  </defs>
  <title>wallet</title>
  <g>
    <path d="M434.797,186.728a7.49953,7.49953,0,0,0,7.5-7.5V165.086a17.62165,17.62165,0,0,0-17.602-17.602H410.552a7.5,7.5,0,0,0,0,15h14.143a2.60463,2.60463,0,0,1,2.602,2.602v14.142A7.49953,7.49953,0,0,0,434.797,186.728Z" transform="translate(-23.232)" style="fill: url(#a)"/>
    <path d="M424.695,360.476a17.62229,17.62229,0,0,0,17.602-17.602V328.732a7.5,7.5,0,0,0-15,0v14.142a2.60461,2.60461,0,0,1-2.602,2.602H410.552a7.5,7.5,0,0,0,0,15Z" transform="translate(-23.232)" style="fill: url(#b)"/>
    <path d="M481.268,208.09h-8.67V144.68a27.52927,27.52927,0,0,0-27.5-27.5H335.723l16.492-16.492a7.49684,7.49684,0,0,0,2.197-5.303V76.55a26.693,26.693,0,1,0-15,0V92.278l-18.007,18.007a7.49686,7.49686,0,0,0-2.197,5.303v1.593H286.73V52.306a26.69151,26.69151,0,1,0-14.999,0V117.18H239.253v-1.593a7.4968,7.4968,0,0,0-2.197-5.303L219.05,92.278V76.55a26.693,26.693,0,1,0-15,0V95.384a7.49683,7.49683,0,0,0,2.197,5.303l16.492,16.492H183.497a7.5,7.5,0,0,0,0,15h40.756v37.4a103.27594,103.27594,0,0,0-31.442,31.442H141.925l-18.007-18.006a7.49866,7.49866,0,0,0-5.303-2.197H100.861V144.677a12.51355,12.51355,0,0,1,12.5-12.5h35.167a7.5,7.5,0,0,0,0-15H113.361a27.53057,27.53057,0,0,0-27.5,27.5v19.651a26.693,26.693,0,1,0,0,47.98V248.5H75.538a26.693,26.693,0,1,0,0,15H85.862v36.191a26.693,26.693,0,1,0,0,47.98v19.651a27.53057,27.53057,0,0,0,27.5,27.5H222.739l-16.491,16.491a7.49689,7.49689,0,0,0-2.197,5.303V435.45a26.693,26.693,0,1,0,15,0V419.722l18.006-18.006a7.49689,7.49689,0,0,0,2.197-5.303v-1.591h32.478v64.873a26.69305,26.69305,0,1,0,15,0V394.822H319.21v1.591a7.497,7.497,0,0,0,2.197,5.303l18.007,18.007v15.728a26.692,26.692,0,1,0,15,0V416.617a7.497,7.497,0,0,0-2.197-5.303l-16.491-16.491h42.815a7.5,7.5,0,1,0,0-15H334.21V342.42a102.38918,102.38918,0,0,0,0-172.84v-37.4H445.099a12.511,12.511,0,0,1,12.5,12.5v63.41h-17.15a47.55583,47.55583,0,0,0-47.5,47.5v.82a47.55583,47.55583,0,0,0,47.5,47.5h17.15v63.41a12.511,12.511,0,0,1-12.5,12.5h-31.6a7.5,7.5,0,1,0,0,15h31.6a27.52928,27.52928,0,0,0,27.5-27.5V303.91h8.67a7.50271,7.50271,0,0,0,7.5-7.5V215.59A7.50424,7.50424,0,0,0,481.268,208.09ZM335.22,50.937A11.69249,11.69249,0,1,1,346.913,62.63,11.70694,11.70694,0,0,1,335.22,50.937ZM267.539,26.693a11.69249,11.69249,0,1,1,11.692,11.693A11.70608,11.70608,0,0,1,267.539,26.693ZM199.858,50.937A11.693,11.693,0,1,1,211.551,62.63,11.70694,11.70694,0,0,1,199.858,50.937ZM49.925,267.693A11.693,11.693,0,1,1,61.618,256,11.70694,11.70694,0,0,1,49.925,267.693Zm173.319,193.37a11.693,11.693,0,1,1-11.693-11.693A11.70694,11.70694,0,0,1,223.244,461.063Zm67.681,24.244a11.69249,11.69249,0,1,1-11.693-11.693A11.70694,11.70694,0,0,1,290.925,485.307Zm67.68-24.244a11.69249,11.69249,0,1,1-11.692-11.693A11.70607,11.70607,0,0,1,358.605,461.063ZM239.254,132.18h32.478v21.641a101.68605,101.68605,0,0,0-32.478,7.848ZM74.169,200.012a11.693,11.693,0,1,1,11.693-11.693A11.70629,11.70629,0,0,1,74.169,200.012Zm26.693-4.193h14.647l18.007,18.006a7.49691,7.49691,0,0,0,5.303,2.197H184.9a101.68649,101.68649,0,0,0-7.848,32.478h-76.19V195.819Zm76.19,67.681a101.68638,101.68638,0,0,0,7.848,32.478H138.819a7.49692,7.49692,0,0,0-5.303,2.197l-18.007,18.006H100.862V263.5ZM74.169,335.374a11.693,11.693,0,1,1,11.693-11.693A11.70629,11.70629,0,0,1,74.169,335.374Zm26.693,31.947V331.18h17.754a7.49872,7.49872,0,0,0,5.303-2.197l18.007-18.006h50.886a103.27569,103.27569,0,0,0,31.442,31.442v37.402H113.362A12.51356,12.51356,0,0,1,100.862,367.321Zm138.392,12.5v-29.49a101.686,101.686,0,0,0,32.478,7.848v21.642Zm79.955,0H286.731V358.179a101.686,101.686,0,0,0,32.478-7.848ZM366.688,256a87.4555,87.4555,0,1,1-87.456-87.455A87.55409,87.55409,0,0,1,366.688,256Zm-47.479-94.332a101.68625,101.68625,0,0,0-32.478-7.848V132.18h32.478ZM473.768,288.91h-33.32a32.5375,32.5375,0,0,1-32.5-32.5v-.82a32.53752,32.53752,0,0,1,32.5-32.5h33.32Z" transform="translate(-23.232)" style="fill: url(#c)"/>
    <circle cx="416.61599" cy="256" r="14.142" style="fill: url(#d)"/>
  </g>
  <g>
    <path d="M318.92892,216.27154a6.62915,6.62915,0,0,0-1.044-9.30541,61.34668,61.34668,0,0,0-38.65243-13.52077,62,62,0,1,0,0,124,61.38432,61.38432,0,0,0,38.11515-13.09693,6.62078,6.62078,0,0,0-4.07252-11.84133,6.65857,6.65857,0,0,0-4.07368,1.4014,48.27142,48.27142,0,0,1-29.969,10.29414,48.75729,48.75729,0,1,1,0-97.51458,48.23033,48.23033,0,0,1,30.38983,10.62744,6.62222,6.62222,0,0,0,9.30659-1.044Z" transform="translate(-23.232)" style="fill: url(#e)"/>
    <path d="M334.891,228.1017a6.62122,6.62122,0,1,0-11.88247,5.84542,48.88993,48.88993,0,0,1,.46791,42.01719,6.62327,6.62327,0,0,0,6.00061,9.41475,6.64979,6.64979,0,0,0,6.00766-3.83151,62.13129,62.13129,0,0,0-.59371-53.44585Z" transform="translate(-23.232)" style="fill: url(#f)"/>
    <path d="M279.2325,223.54246a31.90292,31.90292,0,1,0,31.90292,31.90292A31.93881,31.93881,0,0,0,279.2325,223.54246Zm0,13.24272a18.63486,18.63486,0,0,1,14.25262,6.62312,12.03894,12.03894,0,0,0-.00118,24.07474,18.658,18.658,0,1,1-14.25144-30.69786Z" transform="translate(-23.232)" style="fill: url(#g)"/>
  </g>
</svg>
