<svg xmlns="http://www.w3.org/2000/svg" viewBox="0 0 244.66203 33.28647">
  <title>benzinga</title>
  <g>
    <polygon points="35.183 33.183 58.674 33.183 58.674 26.988 42.282 26.988 42.282 19.39 55.872 19.39 55.872 13.19 42.282 13.19 42.282 6.195 58.772 6.195 58.772 0 35.183 0 35.183 33.183" style="fill: #fff"/>
    <polygon points="86.955 20.887 71.567 0 60.971 0 64.271 4.199 64.271 33.286 71.365 33.286 71.365 11.496 87.257 33.183 94.054 33.183 94.054 0 86.955 0 86.955 20.887" style="fill: #fff"/>
    <path d="M52.157,19.87493c3.11817-.59764,5.71665-3.49754,5.71665-7.59274-.02079-4.42261-3.21691-8.5178-9.61436-8.5178H27.669l3.19613,4.09519V36.96251H48.97648c6.40264,0,9.69751-3.99646,9.69751-8.99592C58.55446,23.8558,55.73252,20.35825,52.157,19.87493Zm-14.19287-9.8742h8.89718c2.401,0,3.89771,1.40317,3.89771,3.49755s-1.49672,3.49754-3.89771,3.49754H37.96414Zm9.19341,20.7878H37.96414V23.15421h9.19341c2.70241,0,4.19913,1.6994,4.19913,3.799,0,2.39579-1.60066,3.799-4.19913,3.799Z" transform="translate(-27.66898 -3.76439)" style="fill: #fff"/>
    <path d="M225.57405,24.65093h3.70023v3.90291a10.86161,10.86161,0,0,1-6.79761,2.49454c-5.89854,0-10.09248-4.49537-10.09248-10.59139s4.19394-10.59658,10.09248-10.59658a9.11024,9.11024,0,0,1,7.59794,4.19914l5.59711-3.11817a15.06342,15.06342,0,0,0-13.29379-7.177c-9.39608,0-17.1915,6.49619-17.1915,16.59386s7.69668,16.58867,17.19152,16.58867a17.732,17.732,0,0,0,13.59-5.99729V18.65885H220.77726Z" transform="translate(-27.66898 -3.76439)" style="fill: #fff"/>
    <polygon points="165.923 20.887 150.53 0 139.933 0 143.233 4.199 143.233 33.286 150.332 33.286 150.332 11.496 166.224 33.183 173.017 33.183 173.017 0 165.923 0 165.923 20.887" style="fill: #fff"/>
    <path d="M259.453,3.76439H245.76421l3.29486,4.19913L248.46143,9.559,237.86485,37.05086H245.863l2.07878-5.60231h14.31757l2.07878,5.60231H272.331ZM249.76585,25.155l5.19695-14.29682L260.15975,25.155Z" transform="translate(-27.66898 -3.76439)" style="fill: #fff"/>
    <rect x="128.73886" width="7.09904" height="33.28647" style="fill: #fff"/>
    <polygon points="123.043 5.696 123.043 0 98.051 0 98.051 6.195 113.746 6.195 98.051 27.487 98.051 33.183 123.344 33.183 123.344 26.988 107.249 26.988 123.043 5.696" style="fill: #fff"/>
  </g>
</svg>
