<svg xmlns="http://www.w3.org/2000/svg" viewBox="0 0 300 81.37196">
  <title>bsc</title>
  <g>
    <path d="M133.71005,69.13463h13.796c3.50725,0,6.07934.93555,7.71626,2.57209a6.63261,6.63261,0,0,1,2.33829,5.14418,7.95471,7.95471,0,0,1-.23379,2.33829,9.81654,9.81654,0,0,1-2.1045,3.27384,4.8975,4.8975,0,0,1-1.40313.93517,9.78661,9.78661,0,0,1,4.209,2.57208,6.98236,6.98236,0,0,1,1.40275,4.67659,8.54266,8.54266,0,0,1-.70137,3.50725,8.08221,8.08221,0,0,1-2.33829,2.57209,23.55081,23.55081,0,0,1-3.50763,1.63692,15.14815,15.14815,0,0,1-4.67621.46758H133.94384V69.13463ZM146.3367,81.29369a9.38154,9.38154,0,0,0,3.50725-.70137,2.57163,2.57163,0,0,0,1.40313-2.33829,2.87768,2.87768,0,0,0-1.169-2.33831,4.05914,4.05914,0,0,0-3.27384-.70136h-6.54692v6.31313h6.07934ZM147.97362,93.219a9.383,9.383,0,0,0,3.50725-.70137,2.21628,2.21628,0,0,0,1.16933-2.57209,2.8769,2.8769,0,0,0-1.16933-2.33829,7.24072,7.24072,0,0,0-3.74105-.93554h-7.71625V93.219Z" transform="translate(-50 -59.31402)" style="fill: #fff"/>
    <rect x="117.61503" y="9.82058" width="6.5473" height="29.92987" style="fill: #fff"/>
    <polygon points="134.217 9.821 140.296 9.821 154.326 28.293 154.326 9.821 160.873 9.821 160.873 39.751 155.261 39.751 140.53 20.811 140.53 39.751 134.217 39.751 134.217 9.821" style="fill: #fff"/>
    <path d="M230.748,68.90092h6.08008l12.86005,30.16366h-6.78071l-2.80626-6.78109H227.47494l-2.80624,6.78109H217.888Zm7.01526,17.77081L233.78807,76.851l-3.97521,9.82075Z" transform="translate(-50 -59.31402)" style="fill: #fff"/>
    <polygon points="206.703 9.821 212.783 9.821 226.812 28.293 226.812 9.821 233.359 9.821 233.359 39.751 227.748 39.751 213.25 20.811 213.25 39.751 206.703 39.751 206.703 9.821" style="fill: #fff"/>
    <path d="M307.20962,99.53235a17.5589,17.5589,0,0,1-6.07934-1.16933,15.55911,15.55911,0,0,1-8.18385-8.18385,17.55867,17.55867,0,0,1-1.16934-6.07934,16.41885,16.41885,0,0,1,4.44279-10.99009,13.92182,13.92182,0,0,1,4.9104-3.27346,15.11119,15.11119,0,0,1,6.31313-1.16934,20.087,20.087,0,0,1,3.74142.23417,11.58016,11.58016,0,0,1,3.04.93517,25.61423,25.61423,0,0,1,2.57171,1.40275,16.38514,16.38514,0,0,1,2.33831,1.87071L315.16,78.02012a33.46593,33.46593,0,0,0-3.50763-2.57209,7.68622,7.68622,0,0,0-3.97521-.93516,9.38445,9.38445,0,0,0-3.50726.70137,6.38166,6.38166,0,0,0-2.80587,2.1045,13.25918,13.25918,0,0,0-1.87071,3.03967,9.38349,9.38349,0,0,0-.7014,3.50763,10.59255,10.59255,0,0,0,.7014,3.741,8.24778,8.24778,0,0,0,1.87071,3.03967,8.35069,8.35069,0,0,0,6.31313,2.80589,10.133,10.133,0,0,0,4.44279-.93518,19.34456,19.34456,0,0,0,3.50763-2.57208l4.20863,4.209c-.70137.70139-1.63655,1.63655-2.33829,2.33793a17.41415,17.41415,0,0,1-2.8055,1.63692,13.50969,13.50969,0,0,1-3.27384,1.16933,28.37853,28.37853,0,0,1-4.209.23379" transform="translate(-50 -59.31402)" style="fill: #fff"/>
    <polygon points="277.319 9.821 299.766 9.821 299.766 15.666 283.632 15.666 283.632 21.746 297.895 21.746 297.895 27.592 283.632 27.592 283.632 33.905 300 33.905 300 39.751 277.319 39.751 277.319 9.821" style="fill: #fff"/>
    <path d="M142.12788,128.52689a10.46933,10.46933,0,0,1-4.67659-.93516,13.61873,13.61873,0,0,1-4.20863-2.57246l2.33792-2.57209a14.07387,14.07387,0,0,0,3.03967,2.1045,9.38465,9.38465,0,0,0,3.50763.70138,6.22765,6.22765,0,0,0,2.80587-.70138,2.12692,2.12692,0,0,0,.93517-1.87071,1.40462,1.40462,0,0,0-.23379-.93479c-.23379-.23417-.46759-.70175-.70138-.93554q-.70137-.35069-1.40275-.70138c-.70175-.23379-1.63692-.46758-2.33829-.70175a15.1213,15.1213,0,0,1-3.04005-.93516,6.12968,6.12968,0,0,1-2.1045-1.16934,10.1685,10.1685,0,0,1-1.40275-1.63654,5.48407,5.48407,0,0,1-.46758-2.57246,9.94563,9.94563,0,0,1,.46758-2.57171,5.62806,5.62806,0,0,1,1.40275-1.87071,7.32737,7.32737,0,0,1,2.33829-1.16934,11.741,11.741,0,0,1,2.80626-.46758,13.23259,13.23259,0,0,1,4.20863.70175,25.53494,25.53494,0,0,1,3.50725,1.87033l-1.87034,2.80588a17.46812,17.46812,0,0,0-2.80587-1.63654,5.93287,5.93287,0,0,0-2.80588-.46758,4.71547,4.71547,0,0,0-2.57246.70137,2.88612,2.88612,0,0,0-.93517,1.87033,2.10956,2.10956,0,0,0,.23379,1.16934c.23379.23379.46759.70137.70138.93517a11.463,11.463,0,0,0,1.63692.70175,18.98894,18.98894,0,0,0,2.57208.70137,21.73675,21.73675,0,0,1,3.04005.93517,9.47823,9.47823,0,0,1,2.10412,1.16934,7.10823,7.10823,0,0,1,1.16934,1.63691,6.91681,6.91681,0,0,1,.46758,2.33792,8.40724,8.40724,0,0,1-.46758,2.57209,12.859,12.859,0,0,1-1.63692,2.1045,7.30422,7.30422,0,0,1-2.33829,1.16933c-1.169,0-2.3383.23379-3.27346.23379" transform="translate(-50 -59.31402)" style="fill: #fff"/>
    <polygon points="103.819 47.935 107.794 47.935 114.107 57.755 120.655 47.935 124.63 47.935 124.63 68.979 120.889 68.979 120.889 53.78 114.341 63.601 114.107 63.601 107.561 53.78 107.561 68.979 103.819 68.979 103.819 47.935" style="fill: #fff"/>
    <path d="M187.25647,107.0149h3.50763l9.119,21.04426h-3.97485l-2.1045-5.14417H183.983l-2.1045,5.14417h-3.74141Zm5.378,12.86042-3.74106-8.41763-3.50763,8.41763Z" transform="translate(-50 -59.31402)" style="fill: #fff"/>
    <path d="M203.62418,107.24864h9.35318a18.05461,18.05461,0,0,1,3.50763.46759,6.05128,6.05128,0,0,1,2.57169,1.63692,8.15454,8.15454,0,0,1,1.40313,2.1045,8.40465,8.40465,0,0,1,.46758,2.57172,8.3066,8.3066,0,0,1-.46758,2.33829c-.23379.70175-.70137,1.16932-.93552,1.87071a10.16439,10.16439,0,0,1-1.63619,1.40313,8.32723,8.32723,0,0,1-2.1045.93554l5.6114,7.95h-4.44243l-5.14418-7.24867h-4.67658v7.24867h-3.74142Zm9.11939,10.28834a4.31315,4.31315,0,0,0,3.04-.93515,3.41418,3.41418,0,0,0,0-5.14418,5.37085,5.37085,0,0,0-3.27384-.93555h-5.37795V117.537Z" transform="translate(-50 -59.31402)" style="fill: #fff"/>
    <polygon points="180.514 51.208 173.734 51.208 173.734 47.934 190.803 47.934 190.803 51.208 184.022 51.208 184.022 68.979 180.281 68.979 180.514 51.208" style="fill: #fff"/>
    <path d="M263.48412,128.52689a9.17293,9.17293,0,0,1-4.209-.93516,10.172,10.172,0,0,1-5.61174-5.61176,8.8994,8.8994,0,0,1-.70139-4.209,13.24486,13.24486,0,0,1,.70139-4.20938,10.5734,10.5734,0,0,1,5.61174-5.84517,13.66562,13.66562,0,0,1,4.44281-.93554,8.76749,8.76749,0,0,1,2.57208.23379q1.05261.35068,2.10413.70175c.70174.23379,1.16932.70138,1.87071.93517.46795.46758,1.16932.93516,1.63692,1.40312l-2.33831,2.8055a10.39708,10.39708,0,0,0-2.57171-1.87033,7.47071,7.47071,0,0,0-3.27382-.70137,11.73806,11.73806,0,0,0-2.80589.46758,8.39417,8.39417,0,0,0-2.33829,1.63692,4.84631,4.84631,0,0,0-1.40274,2.33791,8.65342,8.65342,0,0,0,0,5.61214,4.8493,4.8493,0,0,0,1.40274,2.33791,8.39417,8.39417,0,0,0,2.33829,1.63692,4.025,4.025,0,0,0,2.80589.46758,7.47071,7.47071,0,0,0,3.27382-.70137,11.0053,11.0053,0,0,0,2.8055-2.10413l2.33831,2.33792-1.63655,1.63692a8.21222,8.21222,0,0,1-1.87071,1.169,6.86317,6.86317,0,0,1-2.33829.70175,4.21788,4.21788,0,0,1-2.80587.70137" transform="translate(-50 -59.31402)" style="fill: #fff"/>
    <polygon points="225.877 47.935 229.384 47.935 229.384 56.586 239.439 56.586 239.439 47.935 243.18 47.935 243.18 68.979 239.439 68.979 239.439 60.094 229.384 60.094 229.384 68.979 225.877 68.979 225.877 47.935" style="fill: #fff"/>
    <path d="M306.04065,107.0149h3.50726l9.11937,21.04426h-3.97484l-2.1045-5.14417h-9.82077l-2.1045,5.14417h-3.74142Zm5.14418,12.86042-3.50763-8.41763-3.50726,8.41763Z" transform="translate(-50 -59.31402)" style="fill: #fff"/>
    <rect x="272.40851" y="47.93466" width="3.74105" height="21.04464" style="fill: #fff"/>
    <polygon points="281.762 47.935 285.035 47.935 296.259 62.432 296.259 47.935 300 47.935 300 68.979 296.96 68.979 285.503 54.014 285.503 68.979 281.762 68.979 281.762 47.935" style="fill: #fff"/>
    <path d="M92.5565,126.89v9.11939L84.60645,140.686l-7.71626-4.67658V126.89l7.71626,4.67659ZM50,95.32323l7.71626,4.67659v15.66631l13.328,7.95v9.11939L50,120.34308Zm69.21253,0v25.01985L97.93446,132.73556v-9.11939l13.328-7.95V99.99982ZM97.93446,82.93039l7.95005,4.67658v9.11938l-13.328,7.95005v15.90047l-7.71626,4.67622L77.124,120.57687V104.6764L63.328,96.72635V87.607l7.95-4.67658,13.32839,7.95ZM63.328,103.27328l7.71626,4.67658v9.11938L63.328,112.39266Zm42.5565,0v9.11938l-7.71626,4.67658v-9.11938ZM57.71626,74.98034l7.95,4.67659-7.95,4.67658v9.11938L50,88.77631V79.65693Zm53.78038,0,7.95006,4.67659v9.11938l-7.95006,4.67658V84.33351l-7.71626-4.67658Zm-26.89019,0,7.95005,4.67659-7.95005,4.67658-7.71626-4.67658Zm0-15.66632,21.27806,12.39285-7.71626,4.67658-13.328-7.95-13.56218,7.95L63.5618,71.70687Z" transform="translate(-50 -59.31402)" style="fill: #fff"/>
  </g>
</svg>
