<svg xmlns="http://www.w3.org/2000/svg" viewBox="0 0 300 70.25028">
  <title>cointel</title>
  <g>
    <g>
      <path d="M43.55,51.10028l-12.5,5.45v-.55a42.84791,42.84791,0,0,1-7.6,1.1c-11.8-.1-21.1-6.3-21.25-13.6v-2.7c3.85,5.6,11.75,9.4,21.25,9.25a30.70318,30.70318,0,0,0,9.25-1.1l1.1-2.7a35.84737,35.84737,0,0,1-10.35,1.65c-11.8,0-21.1-6.15-21.25-13.6v-2.2c3.85,5.2,11.75,8.95,21.25,8.7a26.37465,26.37465,0,0,0,12-2.2l.55-2.7a25.72862,25.72862,0,0,1-12.5,2.7c-11.8.15-21.1-6-21.25-13.6v-2.2c3.85,5.3,11.75,9.1,21.25,9.25a34.0228,34.0228,0,0,0,14.7-3.8l.55-3.25a28.34514,28.34514,0,0,1-15.25,4.9c-11.8-.25-21.1-6.45-21.25-14.15.1-7.35,9.45-13.5,21.25-13.6,7,.1,13.55,2.55,17.4,6.55l.4.65h2.75l-.4-.65c-3.85-5.25-11.6-8.7-20.15-8.7-13.1-.05-23.5,7.1-23.5,15.7v28.3c.45,8.4,10.6,15.25,23.4,15.25C31.85,59.30028,39.5,55.95029,43.55,51.10028Z" style="fill: #fff"/>
      <path d="M38.45,70.25028l4.4-18.7-12.65,5.5,7.7-32.4H23.1l3.85-15.95H74.2l-3.85,15.95H54.95l-3.3,8.8,17.05-7.15Zm7.7-22.5-2.2,11,18.15-27.45-14.85,6.6,6.6-15.4H68.7l2.75-11.55H28.55l-2.75,11.55H40.65l-7.15,30.75Z" style="fill: #fff"/>
    </g>
    <path d="M105.55,19.40028v.05a5.04625,5.04625,0,0,1-1.6,4.1,6.48549,6.48549,0,0,1-4.55,1.5,6.32548,6.32548,0,0,1-4.75-1.9,6.80742,6.80742,0,0,1-1.8-4.9v-3.25a6.99543,6.99543,0,0,1,1.75-4.9,6.17809,6.17809,0,0,1,4.65-1.9,7.13585,7.13585,0,0,1,4.7,1.45,4.927,4.927,0,0,1,1.65,4.1v.05h-3.2a3.23515,3.23515,0,0,0-.75-2.35,3.23515,3.23515,0,0,0-2.35-.75,2.6171,2.6171,0,0,0-2.3,1.2,5.2357,5.2357,0,0,0-.85,3.05v3.3a5.40234,5.40234,0,0,0,.85,3.1,2.8785,2.8785,0,0,0,2.45,1.2,2.93033,2.93033,0,0,0,2.2-.75,3.23515,3.23515,0,0,0,.75-2.35h3.15Zm18.1-1.3a6.98985,6.98985,0,0,1-1.9,5,6.55206,6.55206,0,0,1-4.95,1.95,6.62862,6.62862,0,0,1-4.95-1.95,6.98987,6.98987,0,0,1-1.9-5v-2.95a7.07405,7.07405,0,0,1,1.9-5,6.55281,6.55281,0,0,1,4.9-2,6.40887,6.40887,0,0,1,4.95,2,6.78478,6.78478,0,0,1,1.9,5v2.95Zm-3.3-3a4.9239,4.9239,0,0,0-.95-3.15,3.228,3.228,0,0,0-2.65-1.25,3.00607,3.00607,0,0,0-2.6,1.25,5.13154,5.13154,0,0,0-.95,3.15v2.95a5.071,5.071,0,0,0,.95,3.2,3.13253,3.13253,0,0,0,2.6,1.25,3.0967,3.0967,0,0,0,2.65-1.25,4.97605,4.97605,0,0,0,.95-3.2Zm11.8,9.7h-3.3v-16.4h3.3Zm18.95,0h-3.3l-6.6-11.05h-.05v11.05h-3.3v-16.4h3.3l6.6,11.05h.05v-11.05h3.3Zm16.55-13.85h-4.7v13.85h-3.3v-13.85h-4.6v-2.55h12.6Zm13.6,6.65h-6.1v4.7h7.25v2.5H171.9v-16.4h10.5v2.55h-7.2v4.1h6.1v2.55Zm9.15,4.7h7.35v2.5H187.1v-16.4h3.3v13.9Zm21.35-4.7h-6.1v4.7h7.25v2.5H202.4v-16.4h10.5v2.55h-7.2v4.1h6.1v2.55Zm18.45,5a6.19035,6.19035,0,0,1-2.3,1.75,8.73929,8.73929,0,0,1-3.9.75,6.42644,6.42644,0,0,1-6.75-6.7v-3.45a6.51936,6.51936,0,0,1,1.85-4.85,6.29013,6.29013,0,0,1,4.7-1.9,6.674,6.674,0,0,1,4.6,1.45,4.67385,4.67385,0,0,1,1.55,3.8v.05h-3.1a2.79633,2.79633,0,0,0-.75-2.05,3.00818,3.00818,0,0,0-2.2-.75,3.10532,3.10532,0,0,0-2.45,1.15,4.85951,4.85951,0,0,0-.9,3v3.45a4.63747,4.63747,0,0,0,.95,3.05,3.08585,3.08585,0,0,0,2.55,1.15,5.8773,5.8773,0,0,0,1.85-.25,2.64,2.64,0,0,0,1.05-.6v-3.2H223.8v-2.3h6.45v6.45Zm8.5-4.35v6.55h-3.3v-16.4h5.7a6.883,6.883,0,0,1,4.4,1.3,4.354,4.354,0,0,1,1.6,3.55,3.68308,3.68308,0,0,1-.65,2.2,5.0718,5.0718,0,0,1-1.95,1.5,3.64513,3.64513,0,0,1,2.1,1.45,4.74814,4.74814,0,0,1,.65,2.5v1.2a5.0573,5.0573,0,0,0,.2,1.45,1.86637,1.86637,0,0,0,.65,1.1v.25h-3.4a1.95728,1.95728,0,0,1-.6-1.2,9.08146,9.08146,0,0,1-.15-1.6v-1.15a2.3467,2.3467,0,0,0-2.55-2.6h-2.7Zm0-2.5h2.35a3.04078,3.04078,0,0,0,2.05-.6,2.18456,2.18456,0,0,0,.7-1.75,2.44881,2.44881,0,0,0-.7-1.8,2.68063,2.68063,0,0,0-2-.65h-2.4v4.8Zm22.35,5.55h-5.3l-1.1,3.55H251.2l5.55-16.4h3.35l5.5,16.4h-3.45Zm-4.5-2.6h3.7l-1.8-5.8h-.05Zm16.35.15v5.95h-3.3v-16.4h6.3a6.526,6.526,0,0,1,4.45,1.45,4.77716,4.77716,0,0,1,1.6,3.8,4.94212,4.94212,0,0,1-1.6,3.8,6.526,6.526,0,0,1-4.45,1.45h-3Zm0-2.5h3a2.839,2.839,0,0,0,2.1-.75,2.77986,2.77986,0,0,0,.7-1.9,2.81865,2.81865,0,0,0-.7-1.95,2.68908,2.68908,0,0,0-2.1-.75h-3Zm27.1,8.45h-3.3v-6.8H290v6.8h-3.3v-16.4H290v7.05h6.7v-7.05H300Z" style="fill: #fff"/>
    <path d="M98.85,51.60028H96.8v-10.8H93.1v-1.75h9.45v1.75h-3.7Zm13.75,0h-2.05v-5.85a2.50225,2.50225,0,0,0-.45-1.65,1.73261,1.73261,0,0,0-1.4-.55,2.205,2.205,0,0,0-1.85.75,4.15172,4.15172,0,0,0-.6,2.55v4.7h-2v-13.35h2v3.4c0,.55-.05,1.1-.1,1.75h.15a2.6138,2.6138,0,0,1,1.15-1.05,3.70779,3.70779,0,0,1,1.7-.4c2.3,0,3.45,1.15,3.45,3.5Zm6.95.15a4.52188,4.52188,0,0,1-3.45-1.3,4.8121,4.8121,0,0,1-1.25-3.55,5.5012,5.5012,0,0,1,1.15-3.65,3.97717,3.97717,0,0,1,3.2-1.35,3.87647,3.87647,0,0,1,2.95,1.15,4.24686,4.24686,0,0,1,1.1,3.15v1.1H116.9a3.2101,3.2101,0,0,0,.75,2.1,2.60184,2.60184,0,0,0,2,.75,7.41189,7.41189,0,0,0,1.55-.15,7.24379,7.24379,0,0,0,1.55-.55v1.65a5.8802,5.8802,0,0,1-1.5.5A8.24694,8.24694,0,0,1,119.55,51.75028Zm-.35-8.3a2.07156,2.07156,0,0,0-1.55.6,2.97885,2.97885,0,0,0-.7,1.8h4.3a2.66888,2.66888,0,0,0-.55-1.8A1.88652,1.88652,0,0,0,119.2,43.45029Zm15.65.15h-2.3v8H130.5v-8h-1.55v-.95l1.55-.6v-.6a3.41934,3.41934,0,0,1,.8-2.5,3.24231,3.24231,0,0,1,2.4-.8,6.17168,6.17168,0,0,1,2.1.35l-.55,1.55a4.909,4.909,0,0,0-1.45-.25,1.2407,1.2407,0,0,0-1,.4,2.1988,2.1988,0,0,0-.3,1.25v.6h2.3v1.55Zm8.35,8-.3-1.25h-.1a3.05577,3.05577,0,0,1-1.2,1.05,3.92249,3.92249,0,0,1-1.75.4,3.69448,3.69448,0,0,1-2.6-.85,3.40434,3.40434,0,0,1-.85-2.6v-6.25h2.05v5.85a2.596,2.596,0,0,0,.45,1.65,1.73258,1.73258,0,0,0,1.4.55,2.205,2.205,0,0,0,1.85-.75,4.15172,4.15172,0,0,0,.6-2.55v-4.75h2.05v9.5Zm8-1.5a5.23675,5.23675,0,0,0,1.5-.25v1.5a2.88,2.88,0,0,1-.85.25,7.48939,7.48939,0,0,1-1.1.1q-2.85,0-2.85-3v-5.1h-1.3v-.9l1.4-.75.7-2h1.25v2.1h2.7v1.55h-2.7v5.1a1.45882,1.45882,0,0,0,.35,1.1A1.14736,1.14736,0,0,0,151.2,50.10028Zm10.05,1.5-.3-1.25h-.1a3.0557,3.0557,0,0,1-1.2,1.05,3.92249,3.92249,0,0,1-1.75.4,3.69448,3.69448,0,0,1-2.6-.85,3.61069,3.61069,0,0,1-.85-2.6v-6.25h2.05v5.85a2.596,2.596,0,0,0,.45,1.65,1.7326,1.7326,0,0,0,1.4.55,2.205,2.205,0,0,0,1.85-.75,4.15165,4.15165,0,0,0,.6-2.55v-4.75h2.05v9.5Zm9.3-9.7a5.15728,5.15728,0,0,1,1,.1l-.2,1.9a5.50963,5.50963,0,0,0-.9-.1,2.49349,2.49349,0,0,0-1.95.8,2.87743,2.87743,0,0,0-.75,2.05v4.95h-2v-9.5h1.6l.25,1.65h.1a4.04526,4.04526,0,0,1,1.25-1.35A2.88967,2.88967,0,0,1,170.55,41.90028Zm6.55,9.85a4.52188,4.52188,0,0,1-3.45-1.3,4.8121,4.8121,0,0,1-1.25-3.55,5.5012,5.5012,0,0,1,1.15-3.65,3.97717,3.97717,0,0,1,3.2-1.35,3.87647,3.87647,0,0,1,2.95,1.15,4.24686,4.24686,0,0,1,1.1,3.15v1.1h-6.35a3.2101,3.2101,0,0,0,.75,2.1,2.60182,2.60182,0,0,0,2,.75,7.41189,7.41189,0,0,0,1.55-.15,7.24379,7.24379,0,0,0,1.55-.55v1.65a5.8802,5.8802,0,0,1-1.5.5A8.59378,8.59378,0,0,1,177.1,51.75028Zm-.35-8.3a2.07156,2.07156,0,0,0-1.55.6,2.97885,2.97885,0,0,0-.7,1.8h4.3a2.66883,2.66883,0,0,0-.55-1.8A2.03511,2.03511,0,0,0,176.75,43.45029Zm19.3,3.35a5.266,5.266,0,0,1-1.2,3.65,4.32791,4.32791,0,0,1-3.3,1.3,4.56472,4.56472,0,0,1-2.35-.6,3.77955,3.77955,0,0,1-1.55-1.75,6.03278,6.03278,0,0,1-.55-2.6,5.05027,5.05027,0,0,1,1.2-3.6,4.36645,4.36645,0,0,1,3.35-1.3,4.1525,4.1525,0,0,1,3.25,1.35A5.0648,5.0648,0,0,1,196.05,46.80028Zm-6.9,0c0,2.2.8,3.3,2.45,3.3q2.4,0,2.4-3.3c0-2.15-.8-3.25-2.4-3.25a2.1305,2.1305,0,0,0-1.85.85A4.048,4.048,0,0,0,189.15,46.80028Zm14-3.2h-2.3v8H198.8v-8h-1.55v-.95l1.55-.6v-.6a3.41934,3.41934,0,0,1,.8-2.5,3.24231,3.24231,0,0,1,2.4-.8,6.17164,6.17164,0,0,1,2.1.35l-.55,1.55a4.909,4.909,0,0,0-1.45-.25,1.2407,1.2407,0,0,0-1,.4,2.09167,2.09167,0,0,0-.3,1.25v.6h2.3v1.55Zm14.2,8H215.3v-5.85a2.96989,2.96989,0,0,0-.4-1.65,1.52136,1.52136,0,0,0-1.3-.55,1.90922,1.90922,0,0,0-1.7.75,4.58667,4.58667,0,0,0-.55,2.55v4.75h-2v-9.5h1.6l.3,1.25h.1a2.61378,2.61378,0,0,1,1.15-1.05,3.62273,3.62273,0,0,1,1.65-.35,2.86829,2.86829,0,0,1,2.9,1.5h.15a3.17894,3.17894,0,0,1,1.2-1.1,3.92252,3.92252,0,0,1,1.75-.4,3.35265,3.35265,0,0,1,2.5.85,3.84361,3.84361,0,0,1,.8,2.6v6.2h-2v-5.85a2.96989,2.96989,0,0,0-.4-1.65,1.587,1.587,0,0,0-1.3-.55,1.90924,1.90924,0,0,0-1.7.75,3.92123,3.92123,0,0,0-.55,2.25v5.05Zm17.2-4.8a5.266,5.266,0,0,1-1.2,3.65,4.3279,4.3279,0,0,1-3.3,1.3,4.56477,4.56477,0,0,1-2.35-.6,3.77942,3.77942,0,0,1-1.55-1.75,6.03278,6.03278,0,0,1-.55-2.6,5.05022,5.05022,0,0,1,1.2-3.6,4.36645,4.36645,0,0,1,3.35-1.3,4.15248,4.15248,0,0,1,3.25,1.35A5.31257,5.31257,0,0,1,234.55,46.80028Zm-6.9,0c0,2.2.8,3.3,2.45,3.3q2.4,0,2.4-3.3c0-2.15-.8-3.25-2.4-3.25a2.13052,2.13052,0,0,0-1.85.85A4.04822,4.04822,0,0,0,227.65,46.80028Zm17.6,4.8H243.2v-5.85a2.50225,2.50225,0,0,0-.45-1.65,1.7326,1.7326,0,0,0-1.4-.55,2.14252,2.14252,0,0,0-1.85.75,4.52984,4.52984,0,0,0-.6,2.55v4.75h-2v-9.5h1.6l.3,1.25h.1a3.0557,3.0557,0,0,1,1.2-1.05,3.91184,3.91184,0,0,1,1.75-.35c2.3,0,3.4,1.15,3.4,3.5Zm6.95.15a4.52188,4.52188,0,0,1-3.45-1.3,4.81206,4.81206,0,0,1-1.25-3.55,5.50119,5.50119,0,0,1,1.15-3.65,3.97719,3.97719,0,0,1,3.2-1.35,3.87647,3.87647,0,0,1,2.95,1.15,4.24686,4.24686,0,0,1,1.1,3.15v1.1h-6.35a3.2101,3.2101,0,0,0,.75,2.1,2.60181,2.60181,0,0,0,2,.75,7.41189,7.41189,0,0,0,1.55-.15,8.339,8.339,0,0,0,1.55-.55v1.65a5.8802,5.8802,0,0,1-1.5.5A8.5936,8.5936,0,0,1,252.2,51.75028Zm-.4-8.3a2.07159,2.07159,0,0,0-1.55.6,2.97885,2.97885,0,0,0-.7,1.8h4.3a2.66883,2.66883,0,0,0-.55-1.8A1.88652,1.88652,0,0,0,251.8,43.45029Zm4.6-1.35h2.2l1.95,5.4a10.02539,10.02539,0,0,1,.6,2.15h.05a7.91116,7.91116,0,0,1,.3-1.15c.15-.45.85-2.6,2.2-6.4h2.2l-4.05,10.75c-.75,1.95-1.95,2.95-3.7,2.95a5.45,5.45,0,0,1-1.3-.15v-1.6a6.24085,6.24085,0,0,0,1.05.1,2.13265,2.13265,0,0,0,2.05-1.7l.35-.9Z" style="fill: #fff"/>
  </g>
</svg>
