<svg xmlns="http://www.w3.org/2000/svg" viewBox="0 0 300 37.68904">
  <title>comserve</title>
  <g>
    <path d="M48.26221,75.57778v-.10415A18.52047,18.52047,0,0,1,67.26308,56.62911c6.87158,0,10.98394,2.29044,14.36778,5.62209l-5.10161,5.88232c-2.81117-2.55068-5.67429-4.11235-9.31837-4.11235-6.14256,0-10.56736,5.10135-10.56736,11.34832v.10414c0,6.24671,4.32065,11.45247,10.56736,11.45247,4.16455,0,6.71549-1.66582,9.57861-4.2687L81.8911,87.811a18.62745,18.62745,0,0,1-14.94046,6.5072A18.3935,18.3935,0,0,1,48.26221,75.57778Z" transform="translate(-48.26221 -56.62911)" style="fill: #fff"/>
    <path d="M85.63881,75.57778v-.10415c0-10.35932,8.173-18.84452,19.4172-18.84452,11.24443,0,19.31331,8.38106,19.31331,18.74038v.10414c0,10.35932-8.173,18.84452-19.41746,18.84452C93.70769,94.31815,85.63881,85.93684,85.63881,75.57778Zm30.34919,0v-.10415c0-6.247-4.58088-11.45246-11.03614-11.45246-6.455,0-10.93173,5.10135-10.93173,11.34832v.10414c0,6.24671,4.58088,11.45247,11.03588,11.45247C111.51127,86.9261,115.988,81.82422,115.988,75.57778Z" transform="translate(-48.26221 -56.62911)" style="fill: #fff"/>
    <path d="M131.50009,57.25373h8.6413L149.72,72.66246l9.57835-15.40873h8.64155V93.69328h-7.96473V69.90349L149.72,85.46857h-.2083l-10.151-15.409v23.6337h-7.86059Z" transform="translate(-48.26221 -56.62911)" style="fill: #fff"/>
    <path d="M174.18582,88.38363l4.73723-5.674c3.27945,2.70677,6.71524,4.42479,10.8798,4.42479,3.2797,0,5.2577-1.30144,5.2577-3.436v-.10389c0-2.0302-1.24924-3.07115-7.34011-4.63308-7.33986-1.87412-12.07709-3.90432-12.07709-11.14v-.10415c0-6.61134,5.30991-10.98419,12.75391-10.98419a21.09293,21.09293,0,0,1,13.53461,4.63308l-4.16429,6.03868c-3.2275-2.2385-6.40306-3.59189-9.47447-3.59189-3.07115,0-4.685,1.40559-4.685,3.17556v.10389c0,2.39484,1.56168,3.17555,7.86059,4.78943,7.392,1.92606,11.55687,4.58114,11.55687,10.93226v.10336c0,7.23649-5.5182,11.2969-13.37878,11.2969A23.18829,23.18829,0,0,1,174.18582,88.38363Z" transform="translate(-48.26221 -56.62911)" style="fill: #fff"/>
    <path d="M210.00049,57.25373h27.48633v7.13182h-19.5216V71.7776h17.17922v7.13156H217.96522v7.65256H237.7468v7.13156H210.00049Z" transform="translate(-48.26221 -56.62911)" style="fill: #fff"/>
    <path d="M244.87784,57.25373h16.65822c4.63309,0,8.22523,1.30144,10.61982,3.696a11.43829,11.43829,0,0,1,3.12335,8.32911V69.383a11.31667,11.31667,0,0,1-7.80864,11.29637l8.90179,13.01389h-9.37006L259.19368,82.033h-6.29891V93.69328h-8.01693Zm16.13775,17.69943c3.90432,0,6.14282-2.08241,6.14282-5.15382V69.6952c0-3.4358-2.39459-5.2055-6.29891-5.2055h-7.96473V74.95316Z" transform="translate(-48.26221 -56.62911)" style="fill: #fff"/>
    <path d="M278.35038,57.25373H287.2l9.52667,25.66364,9.52615-25.66364h8.64181l-14.73243,36.7h-7.07935Z" transform="translate(-48.26221 -56.62911)" style="fill: #fff"/>
    <path d="M320.5159,57.25373h27.48633v7.13182h-19.5216V71.7776h17.17922v7.13156H328.48063v7.65256h19.78158v7.13156H320.5159Z" transform="translate(-48.26221 -56.62911)" style="fill: #fff"/>
  </g>
</svg>
