<svg xmlns="http://www.w3.org/2000/svg" viewBox="0 0 300 43.07721">
  <title>marketwatch</title>
  <g>
    <path d="M75.3052,42.22628H68.12569l.47864-2.60584-.10645-.00014c-1.64862,2.34-4.83954,3.45676-7.65809,3.45676-7.605,0-10.95537-6.00957-9.67909-12.97637,1.436-7.924,8.03043-12.92314,14.46541-12.92314,3.9354,0,5.79677,1.91455,6.38181,3.40358l.1064.00025.47859-2.55262,7.1795-.00014L75.3052,42.22628ZM63.17975,36.32312c4.52044,0,6.75409-3.8291,7.1795-6.16906.53181-2.925-.85092-6.1691-4.94594-6.1691s-6.59447,3.51-7.07325,6.22228C57.91484,32.494,58.872,36.32312,63.17975,36.32312Z" style="fill: #fff;fill-rule: evenodd"/>
    <path d="M83.65473,18.02862h6.754l-.47864,2.55261.10645.00015a7.34025,7.34025,0,0,1,6.64764-3.40359L95.35466,24.4637c-3.35036.10645-5.79677.79774-6.48821,4.46721L86.42009,42.22628h-7.1795Z" style="fill: #fff;fill-rule: evenodd"/>
    <polygon points="101.524 8.615 108.703 8.615 105.353 26.804 105.459 26.804 113.755 18.029 122.264 18.029 111.256 28.665 117.531 42.226 109.395 42.226 104.768 30.579 104.661 30.579 102.534 42.226 95.355 42.226 101.524 8.615" style="fill: #fff;fill-rule: evenodd"/>
    <path d="M142.7395,34.67445a18.07869,18.07869,0,0,1-6.00962,6.1691A13.50811,13.50811,0,0,1,129.4972,43.024c-6.91362,0-11.69994-5.63729-10.37038-12.81679,1.22311-6.75409,7.65809-12.97637,14.99722-12.97637s11.59363,5.85,10.26407,13.2423a8.60359,8.60359,0,0,1-.53181,1.91455l-18.02861-.00015c-.10641,2.87177,1.96777,4.57366,4.78631,4.57366a6.19283,6.19283,0,0,0,4.78637-2.28678Zm-5.05225-7.23268c-.05323-1.436-.95722-4.14825-4.68006-4.14825a6.72554,6.72554,0,0,0-6.22228,4.14825Z" style="fill: #fff;fill-rule: evenodd"/>
    <path d="M228.09592,42.22628h-7.17945l.47858-2.60584-.10625-.00014c-1.64867,2.3401-4.83954,3.45691-7.65829,3.45691-7.605,0-10.95537-6.00958-9.679-12.97637,1.436-7.924,8.03042-12.92319,14.4654-12.92319,3.9354,0,5.79672,1.91459,6.38176,3.40358l.1064.00015.47864-2.55262,7.1796-.00014-4.46736,24.19766Zm-12.1253-5.90316c4.52043,0,6.75409-3.8291,7.1795-6.16906.53181-2.925-.85092-6.1691-4.94594-6.1691s-6.59447,3.51-7.0732,6.22228C210.70557,32.494,211.66289,36.32312,215.97062,36.32312Z" style="fill: #fff;fill-rule: evenodd"/>
    <path d="M274.04494,33.02583c-2.28673,5.47776-7.924,9.9982-14.4654,9.9982-7.2859,0-11.80634-5.74369-10.47678-12.92319,1.3295-7.12628,7.87094-12.87,15.05039-12.87,6.38181,0,10.74271,4.25451,10.849,10.15768h-7.28591A4.32432,4.32432,0,0,0,263.1426,23.985c-3.40358-.15948-6.22227,2.65907-6.86034,6.1691-.63827,3.51,1.17,6.16906,4.57361,6.16906a6.936,6.936,0,0,0,5.79677-3.24411h7.3923Z" style="fill: #fff;fill-rule: evenodd"/>
    <path d="M280.79889,8.61541h7.17964l-2.12725,11.64686h.10626a8.11838,8.11838,0,0,1,6.75414-3.0314c2.28673,0,4.89272.85092,6.06265,2.65907,1.59544,2.39318,1.43595,4.52043.63821,8.82816L296.913,42.22628h-7.17951l2.44636-13.18907c.21271-1.17.90415-5.05225-2.92494-5.05225-4.0418,0-4.68007,3.61629-4.89277,4.78632l-2.44636,13.455h-7.1795Z" style="fill: #fff;fill-rule: evenodd"/>
    <polygon points="41.375 8.562 28.612 27.708 28.612 8.562 22.443 8.562 22.443 8.562 22.443 8.562 0 42.226 8.669 42.226 21.432 23.081 21.432 42.226 27.654 42.226 40.418 23.081 40.418 42.226 47.597 42.226 47.597 8.562 41.375 8.562" style="fill: #fff;fill-rule: evenodd"/>
    <path d="M162.57621,18.02862h-4.52039l1.32951-7.12628h-6.32868l-.53181,2.76547c-.585,3.13765-2.49958,4.095-5.15865,4.36095l-.1063-.00014h0l-1.0104,5.47775h3.51l-3.45676,18.71991h7.17945L156.939,23.50637h4.52044Z" style="fill: #fff;fill-rule: evenodd"/>
    <polygon points="214.269 0 200.442 8.615 204.271 8.615 191.507 27.708 191.507 8.562 185.285 8.562 172.521 27.708 172.521 8.562 165.342 8.562 165.342 42.226 171.564 42.226 184.328 23.081 184.328 42.226 190.497 42.226 190.497 42.226 190.497 42.226 212.939 8.615 216.449 8.615 214.269 0" style="fill: #fff;fill-rule: evenodd"/>
    <path d="M250.53857,18.02862h-4.52044l1.32956-7.12628h-6.32858l-.53181,2.76547c-.585,3.13765-2.49959,4.095-5.15865,4.36095l-.10631-.00014h0l-1.0104,5.47775h3.50989L234.265,42.22628h7.1795l3.45676-18.71991h4.52058Z" style="fill: #fff;fill-rule: evenodd"/>
  </g>
</svg>
