<svg xmlns="http://www.w3.org/2000/svg" viewBox="0 0 300 108.19849">
  <title>openai</title>
  <path d="M349.03149,46.86926H339.23a.96849.96849,0,0,0-.96851.96851v83.07506a.96849.96849,0,0,0,.96851.96851h9.80146A.96849.96849,0,0,0,350,130.91283v-83.075a.96849.96849,0,0,0-.96851-.96851m-49.0218-.96851c-26.46975,0-26.46975,7.47215-26.46975,43.46731v41.54a.96849.96849,0,0,0,.96851.96851h10.78933a.96849.96849,0,0,0,.96851-.96851V99.99764h27.45282v30.91042a.96849.96849,0,0,0,.9685.96851h10.78453a.96849.96849,0,0,0,.96851-.96851v-41.54c0-35.76757,0-43.46731-26.47459-43.46731m-13.724,43.46731c0-32.84261,0-32.84261,13.724-32.84261s13.72881,0,13.72881,32.84261ZM187.2203,69.08237c-21.57386,0-21.57386,5.48186-21.57386,31.87893s0,31.87894,21.57386,31.87894c16.7942,0,20.50848-3.42373,21.33172-17.32689a.96854.96854,0,0,0-.9087-1.02489q-.02986-.00177-.05981-.00174h-9.82567a.96851.96851,0,0,0-.9685.89588c-.60049,7.79661-2.63438,7.79661-9.54964,7.79661-9.201,0-9.76755,0-9.8063-18.35352h30.43581a.96849.96849,0,0,0,.96851-.9685v-2.90557c0-26.23244,0-31.87893-21.569-31.87893M177.47208,95.155c.08231-16.41646.92979-16.4213,9.79662-16.4213s9.68523,0,9.79178,16.4213h-19.5884ZM76.46975,45.90076C50,45.90076,50,53.37291,50,89.36806s0,43.47214,26.46975,43.47214,26.47459-7.69974,26.47459-43.47214,0-43.4673-26.47459-43.4673m0,76.31478c-13.724,0-13.724,0-13.724-32.84744s0-32.84261,13.724-32.84261,13.724,0,13.724,32.84261,0,32.84744-13.724,32.84744M240.20344,69.08237c-6.615,0-10.04357,1.35108-11.816,5.66585l-1.54-3.78692a1.45279,1.45279,0,0,0-1.36561-.91043h-5.8644a.96849.96849,0,0,0-.9685.96851v59.89345a.96849.96849,0,0,0,.9685.96851H229.419a.9685.9685,0,0,0,.96851-.96851V100.96127c0-22.21791,0-22.21791,9.80146-22.21791s9.8063,0,9.8063,22.21791V130.908a.96849.96849,0,0,0,.96851.96851H260.77a.96849.96849,0,0,0,.96851-.96851V100.96127c0-26.39712,0-31.87894-21.57386-31.87894m-105.88377,0c-6.615,0-10.04357,1.35109-11.816,5.66585l-1.54-3.78691a1.45279,1.45279,0,0,0-1.36561-.91043h-5.83052a.96849.96849,0,0,0-.9685.96851v82.11139a.96848.96848,0,0,0,.9685.9685h9.80631a.96849.96849,0,0,0,.96851-.9685v-22.891a13.66585,13.66585,0,0,0,9.8063,2.60533c21.569,0,21.569-5.477,21.569-31.87893s0-31.87894-21.569-31.87894m0,54.09684c-9.8063,0-9.8063,0-9.8063-22.2179s0-22.21791,9.8063-22.21791,9.8063,0,9.8063,22.21791,0,22.2179-9.8063,22.2179" transform="translate(-50 -45.90076)" style="fill: #fff"/>
</svg>
