<svg xmlns="http://www.w3.org/2000/svg" viewBox="0 0 300 73.93803">
  <title>pytorch</title>
  <g>
    <path d="M132.72732,55.34945l-4.0632,4.0632a16.89047,16.89047,0,1,1-23.88673,0l10.5274-10.5274,1.47753-1.47752V39.466L100.89888,55.34945a22.5715,22.5715,0,1,0,31.82844,0Z" transform="translate(-94.25 -38.48099)" style="fill: #fff"/>
    <path d="M127.74066,51.40937a2.95506,2.95506,0,1,1-2.95506-2.95506A2.955,2.955,0,0,1,127.74066,51.40937Z" transform="translate(-94.25 -38.48099)" style="fill: #fff"/>
  </g>
  <g>
    <path d="M173.79032,75.66547h-6.83357V93.21113H161.7854V43.283h12.559c13.11308,0,19.39258,6.46419,19.39258,15.514C193.92166,69.94005,186.16463,75.66547,173.79032,75.66547Zm.55407-27.39585h-7.203V71.23288l7.01826-.18469c9.41925-.18469,14.59061-3.87851,14.59061-11.63554C188.75031,52.14813,183.579,48.26962,174.34439,48.26962Z" transform="translate(-94.25 -38.48099)" style="fill: #fff"/>
    <path d="M216.88493,93.02644l-2.95506,7.94172c-3.32444,8.86518-6.83358,11.45085-11.82024,11.45085a17.06879,17.06879,0,0,1-7.01826-1.66222l1.47753-4.61727a11.44386,11.44386,0,0,0,5.54073,1.66221c2.77037,0,4.802-1.47753,7.57234-8.49579l2.401-6.46419L197.86173,56.76541h5.35605l11.45085,30.16622,11.26616-30.16622h5.17135Z" transform="translate(-94.25 -38.48099)" style="fill: #fff"/>
    <path d="M247.97461,48.26962v45.1262h-5.17136V48.26962H225.25759v-4.802h40.13955v4.802Z" transform="translate(-94.25 -38.48099)" style="fill: #fff"/>
    <path d="M279.98773,94.31928c-10.158,0-17.54566-7.57234-17.54566-19.20788s7.757-19.39257,18.09975-19.39257,17.54566,7.57234,17.54566,19.20788C297.90278,86.56225,290.14574,94.31928,279.98773,94.31928Zm.1847-33.98317c-7.757,0-12.74369,6.0948-12.74369,14.77529,0,8.86518,5.17134,14.96,12.92838,14.96s12.74369-6.0948,12.74369-14.77529C293.10081,66.24622,287.92947,60.33611,280.17243,60.33611Z" transform="translate(-94.25 -38.48099)" style="fill: #fff"/>
    <path d="M310.46177,93.39582h-4.98664V56.76541l4.98664-1.10815v7.757c2.401-4.61728,5.91012-7.757,10.7121-7.757a14.56131,14.56131,0,0,1,6.46419,1.66222l-1.29284,4.61728a11.44393,11.44393,0,0,0-5.54073-1.66222c-3.87853,0-7.38765,2.95506-10.34272,9.41925Z" transform="translate(-94.25 -38.48099)" style="fill: #fff"/>
    <path d="M347.09218,94.31928c-11.08147,0-17.915-7.94172-17.915-19.20788,0-11.45085,7.57233-19.39257,17.915-19.39257A20.81379,20.81379,0,0,1,358.543,58.85858l-1.29284,4.43259a18.27483,18.27483,0,0,0-10.158-2.95506c-7.94171,0-12.74367,5.91011-12.74367,14.5906,0,8.86517,5.17134,14.77529,12.92838,14.77529a18.73375,18.73375,0,0,0,10.158-2.95506l1.10814,4.61728A23.4506,23.4506,0,0,1,347.09218,94.31928Z" transform="translate(-94.25 -38.48099)" style="fill: #fff"/>
    <path d="M389.07865,93.39582v-23.702c0-6.46419-2.58569-9.23456-7.757-9.23456-4.2479,0-8.31111,2.2163-11.26616,5.17136V93.39582H365.0688V39.58913l4.98666-1.10814V61.629a18.585,18.585,0,0,1,12.74368-5.72543c7.01828,0,11.45086,4.61728,11.45086,12.559V93.45739h-5.17135Z" transform="translate(-94.25 -38.48099)" style="fill: #fff"/>
  </g>
</svg>
