<svg xmlns="http://www.w3.org/2000/svg" viewBox="0 0 300 83.30244">
  <title>tenserflow</title>
  <g>
    <path d="M149.86431,99.12715v29.25374h-5.14148V99.12714h-9.99042V94.08226h25.11406v5.04213Zm27.00452,10.62518a14.46112,14.46112,0,0,1,.41673,3.8913l-16.58908,4.91794c.12971,1.2419.09383.73685.483,1.62a7.39532,7.39532,0,0,0,1.46821,2.20782,5.459,5.459,0,0,0,1.93185,1.2695,6.053,6.053,0,0,0,2.252.414,7.80633,7.80633,0,0,0,2.96125-.53816,11.01167,11.01167,0,0,0,2.619-1.51788l2.98609,3.22894a12.17062,12.17062,0,0,1-3.81954,2.49761,13.03687,13.03687,0,0,1-5.04213.88313,10.6529,10.6529,0,0,1-4.28319-.88037,9.7966,9.7966,0,0,1-3.54908-2.5942,12.65013,12.65013,0,0,1-2.401-4.21144,17.06252,17.06252,0,0,1-.88313-5.67964,18.0703,18.0703,0,0,1,.83345-5.77624,12.74421,12.74421,0,0,1,2.30166-4.18659,9.60416,9.60416,0,0,1,3.54908-2.56937,11.61889,11.61889,0,0,1,4.57849-.88037,10.42345,10.42345,0,0,1,4.77443,1.0294,9.99081,9.99081,0,0,1,3.378,2.75979,11.97744,11.97744,0,0,1,2.00637,4.13968Zm-4.82135,1.15911a5.93089,5.93089,0,0,0-1.17567-2.63008,4.30529,4.30529,0,0,0-1.83526-1.39645,6.95741,6.95741,0,0,0-2.66871-.38637c-1.65587.07452-3.58772.65683-4.504,1.93185s-1.206,3.48562-1.17015,5.84248Zm23.44991,17.14932V113.51668c0-2.61076-.46916-4.41566-1.39645-5.4837a4.83954,4.83954,0,0,0-3.86371-1.56756,4.73749,4.73749,0,0,0-3.91889,1.71107,7.56685,7.56685,0,0,0-1.37162,4.84619v15.0298H179.877V102.35886h5.04213v2.44793a6.60007,6.60007,0,0,1,2.71839-2.20231,8.64313,8.64313,0,0,1,3.745-.78378,8.25843,8.25843,0,0,1,6.83047,2.8895c1.551,1.92357,2.32649,4.802,2.32649,8.61605v14.73727h-5.04212Zm25.75434-6.756a7.29926,7.29926,0,0,1-.80862,3.59877,6.62352,6.62352,0,0,1-2.13056,2.32649,9.30756,9.30756,0,0,1-3.03576,1.2695,16.55818,16.55818,0,0,1-3.64844.39189,15.59855,15.59855,0,0,1-5.26292-.93,18.02184,18.02184,0,0,1-4.57848-2.35135l2.27406-3.79193a14.26845,14.26845,0,0,0,3.745,1.90977,11.93454,11.93454,0,0,0,3.745.63475q4.69854,0,4.69992-2.84258a2.626,2.626,0,0,0-1.58962-2.34581,34.00416,34.00416,0,0,0-4.38255-1.93185,26.49426,26.49426,0,0,1-3.49941-1.58964,10.34147,10.34147,0,0,1-2.35135-1.73866,5.51968,5.51968,0,0,1-1.2971-2.08088,8.24773,8.24773,0,0,1-.39188-2.66871,6.95084,6.95084,0,0,1,.63475-3.03577,5.93348,5.93348,0,0,1,1.81041-2.20231,8.32043,8.32043,0,0,1,2.75979-1.3247,13.14851,13.14851,0,0,1,3.52425-.44156,14.33364,14.33364,0,0,1,4.72475.78378A14.63223,14.63223,0,0,1,220.18369,105l-2.16645,3.84712a11.90972,11.90972,0,0,0-3.182-1.66415,10.8083,10.8083,0,0,0-3.47734-.53816,4.28788,4.28788,0,0,0-2.69355.66235,2.06986,2.06986,0,0,0-.83346,1.689,2.09736,2.09736,0,0,0,.196.90521,2.29605,2.29605,0,0,0,.7341.82793,8.27914,8.27914,0,0,0,1.44336.90521q1.16227.57927,2.37341,1.05148l3.76986,1.5924a11.75682,11.75682,0,0,1,2.71839,1.71382,6.04392,6.04392,0,0,1,1.63932,2.22715,7.90821,7.90821,0,0,1,.53816,3.08544Zm23.45267-5.92526a17.13311,17.13311,0,0,1-.88313,5.70449,12.02331,12.02331,0,0,1-2.44793,4.25835,10.45974,10.45974,0,0,1-3.67053,2.64387,11.38206,11.38206,0,0,1-4.60332.90521,10.38713,10.38713,0,0,1-8.0779-3.67328,12.85454,12.85454,0,0,1-2.37342-4.21144,16.54708,16.54708,0,0,1-.82794-5.48369,16.76316,16.76316,0,0,1,.88313-5.63,12.71982,12.71982,0,0,1,2.42309-4.23627,9.99041,9.99041,0,0,1,3.62361-2.64388,11.35917,11.35917,0,0,1,4.526-.90521,10.87768,10.87768,0,0,1,8.20209,3.6236,12.12206,12.12206,0,0,1,2.401,4.1866,16.51663,16.51663,0,0,1,.82795,5.45886Zm-5.09181.14627a10.10159,10.10159,0,0,0-1.73866-6.29232,5.7144,5.7144,0,0,0-4.82135-2.3265,5.216,5.216,0,0,0-4.526,2.3265,10.4833,10.4833,0,0,0-1.63932,6.14605q0,4.26387,1.76626,6.4855a5.63,5.63,0,0,0,4.65024,2.22714,5.06952,5.06952,0,0,0,2.59421-.68443,6.51308,6.51308,0,0,0,2.00635-1.83526,8.52735,8.52735,0,0,0,1.27226-2.71839,12.2747,12.2747,0,0,0,.44158-3.3283Zm21.347-7.53974a8.52776,8.52776,0,0,0-1.71384-.68442,7.94443,7.94443,0,0,0-2.15263-.276,4.465,4.465,0,0,0-3.72019,1.66415,7.871,7.871,0,0,0-1.32471,4.94554v14.68758H247.006V102.61829h5.04214v2.44792a7.15925,7.15925,0,0,1,5.87558-2.98608,9.95222,9.95222,0,0,1,2.56661.27046,5.823,5.823,0,0,1,1.78559.80861l-1.32471,4.802Z" transform="translate(-49.97097 -69.58035)" style="fill: #fff"/>
    <path d="M269.42657,99.12715v8.961H279.268v5.04213h-9.84141v15.22575h-5.14148V94.08226h22.0783v5.04213Zm17.773,29.22614V95.3076l5.04214-2.64388v35.69509Zm30.79921-12.971a17.20391,17.20391,0,0,1-.88313,5.70448,12.40958,12.40958,0,0,1-2.44793,4.25835,10.4598,10.4598,0,0,1-3.67328,2.64388,11.47628,11.47628,0,0,1-4.60333.90521,10.38713,10.38713,0,0,1-8.07788-3.67328,12.85464,12.85464,0,0,1-2.37342-4.21144,16.54731,16.54731,0,0,1-.82794-5.4837,16.76339,16.76339,0,0,1,.88313-5.63,12.71994,12.71994,0,0,1,2.42309-4.23628,9.99466,9.99466,0,0,1,3.62361-2.64387,11.35919,11.35919,0,0,1,4.526-.90521,10.87772,10.87772,0,0,1,8.20209,3.6236,12.12228,12.12228,0,0,1,2.401,4.1866,16.51689,16.51689,0,0,1,.82794,5.45886Zm-5.09181.14627a10.10159,10.10159,0,0,0-1.73866-6.29232,5.7144,5.7144,0,0,0-4.82135-2.3265,5.22394,5.22394,0,0,0-4.526,2.3265,10.48337,10.48337,0,0,0-1.63932,6.14605q0,4.26387,1.76627,6.4855a5.62993,5.62993,0,0,0,4.65023,2.22714,5.05044,5.05044,0,0,0,2.59421-.68443,6.51308,6.51308,0,0,0,2.00635-1.83526,8.4961,8.4961,0,0,0,1.2695-2.71839,12.39965,12.39965,0,0,0,.44158-3.3283Zm29.963,12.82749h-4.30527l-3.47733-12.971-.75895-3.00817-.563-2.47277-.563,2.49761-.75895,3.03577-3.42765,12.92685h-4.30526l-7.05125-25.70466H322.627l3.03576,12.48528.7341,3.08545.53816,2.54728.63476-2.54728.78377-3.08545,3.42765-12.48527h4.06516l3.47734,12.535.759,3.06336.61267,2.52245.563-2.5666.70928-3.06337,3.03576-12.48528H349.971Z" transform="translate(-49.97097 -69.58035)" style="fill: #fff"/>
    <path d="M94.81287,69.58035h0l32.59661,18.7991-9.65826,5.60524L95.244,80.96329a.78328.78328,0,0,0-.86234,0L60.49157,100.5385l-9.65825-5.60523L94.81287,69.58035m-.86234,13.71127h0V107.696l-9.65826,5.519V101.57332a.87319.87319,0,0,0-1.29352-.77611L61.44015,113.215V102.09072l32.51038-18.7991m1.81092,0h0l21.04119,12.15905v11.21048L95.76145,94.41586V83.29162m32.51037,6.55382h0v11.21047l-9.65825,5.60524V95.45067l9.65825-5.60523M49.971,96.48549h0l9.65826,5.60523V113.215L49.971,107.696V96.48549m32.51038,6.64005h0v11.64164a.8287.8287,0,0,0,.5174.77611l10.95178,6.38135v11.12424L83.8611,127.18494a.92194.92194,0,0,0-1.37975.77611v24.92174l-9.65826-5.60523v-38.633l9.65826-5.519M94.81287,109.162h0l9.74449,5.60523-9.74449,5.60524-9.65826-5.60524,9.65826-5.60523m10.60683,7.15745h0v11.12424l-9.65825,5.60524V121.92464l9.65825-5.60524M84.29227,129.51327h0l9.65826,5.60523v12.15906l-9.65826,5.60523V129.51327" transform="translate(-49.97097 -69.58035)" style="fill: #fff"/>
  </g>
</svg>
