<svg xmlns="http://www.w3.org/2000/svg" viewBox="0 0 300 76.21232">
  <title>trustwallet</title>
  <g>
    <path d="M150.36427,92.1945h-8.18774V87.36893h22.29623V92.1945H156.285v20.76172h-5.92074Zm19.71791,3.69167a6.35746,6.35746,0,0,1,2.74109-2.15716,10.38829,10.38829,0,0,1,4.02039-.73091v5.26412q-.94939-.0735-1.27928-.07349a5.18661,5.18661,0,0,0-3.83786,1.38912,5.475,5.475,0,0,0-1.38912,4.09387v9.2845h-5.70187V93.29047h5.44665Zm27.91355-2.5957v19.66575h-5.41029v-2.33969a7.765,7.765,0,0,1-2.70476,1.97384,8.71508,8.71508,0,0,1-3.39931.65822,8.37486,8.37486,0,0,1-6.14041-2.22986q-2.26621-2.22947-2.26621-6.6161V93.29047h5.70186v10.27142q0,4.7517,3.984,4.75208a4.3134,4.3134,0,0,0,3.29027-1.31642,5.69936,5.69936,0,0,0,1.24214-3.984v-9.723Zm9.70566,19.95812a19.678,19.678,0,0,1-4.78843-.58473,12.83788,12.83788,0,0,1-3.72881-1.5353l1.90114-4.09387a12.35938,12.35938,0,0,0,3.17965,1.38832,13.76566,13.76566,0,0,0,3.65533.512q3.61859,0,3.619-1.79131a1.26769,1.26769,0,0,0-.98692-1.2058,14.64784,14.64784,0,0,0-3.03426-.62187,29.34888,29.34888,0,0,1-3.984-.84,6.315,6.315,0,0,1-2.7411-1.68149,4.82976,4.82976,0,0,1-1.13311-3.43644,5.368,5.368,0,0,1,1.05962-3.28948,7.005,7.005,0,0,1,3.1433-2.26621,13.58311,13.58311,0,0,1,4.89828-.8044,18.20159,18.20159,0,0,1,4.13021.47569,11.28627,11.28627,0,0,1,3.43645,1.24215l-1.90115,4.05752a11.349,11.349,0,0,0-5.66551-1.46182,5.771,5.771,0,0,0-2.74111.51124,1.50535,1.50535,0,0,0-.91422,1.31643,1.30727,1.30727,0,0,0,.98691,1.27928,17.53885,17.53885,0,0,0,3.1433.69456,30.87862,30.87862,0,0,1,3.94769.87709,5.78628,5.78628,0,0,1,2.66842,1.64514,4.71748,4.71748,0,0,1,1.13309,3.36217,5.192,5.192,0,0,1-1.096,3.25313,7.11605,7.11605,0,0,1-3.21679,2.22986A14.393,14.393,0,0,1,207.70139,113.24859Zm23.29265-1.24294a6.1009,6.1009,0,0,1-2.08368.95057,10.85629,10.85629,0,0,1-2.55857.29237,7.72366,7.72366,0,0,1-5.44586-1.79131,6.8902,6.8902,0,0,1-1.90115-5.26334V98.116h-3.03346V93.729h3.03346V88.94137h5.70187V93.729h4.89827v4.387h-4.89827v8.00442a2.80541,2.80541,0,0,0,.62185,1.9375,2.47052,2.47052,0,0,0,1.82768.65821,3.6637,3.6637,0,0,0,2.30256-.7317Zm48.24068-24.63672-8.37027,25.58729h-6.36009L258.8752,95.63016l-5.81171,17.32606h-6.32373l-8.40663-25.58729h6.14041l5.77535,17.98428,6.03139-17.98428h5.48219l5.84885,18.13046,5.95786-18.13046Zm7.17869,5.62917q4.56916,0,7.0183,2.19352,2.44872,2.156,2.44874,6.5426v11.222h-5.33681V110.5067q-1.60722,2.74151-5.99423,2.74189a9.42616,9.42616,0,0,1-3.94769-.768,5.872,5.872,0,0,1-2.52224-2.12,5.51819,5.51819,0,0,1-.87707-3.0706,5.14083,5.14083,0,0,1,2.04733-4.31276q2.08248-1.57164,6.3964-1.57165h4.53244a3.57572,3.57572,0,0,0-1.13312-2.85093,4.9281,4.9281,0,0,0-3.39932-1.02406,9.76163,9.76163,0,0,0-3.10693.512,7.926,7.926,0,0,0-2.55857,1.31564l-2.04734-3.984A12.36865,12.36865,0,0,1,281.77116,93.62,17.45545,17.45545,0,0,1,286.41341,92.9981Zm-.43854,16.41184a5.07461,5.07461,0,0,0,2.59571-.65742,3.78671,3.78671,0,0,0,1.608-2.0102v-2.011h-3.91135q-3.50835,0-3.50916,2.30335a2.11546,2.11546,0,0,0,.84076,1.75418A4.04251,4.04251,0,0,0,285.97487,109.40994Zm12.87345-23.57552h5.70187v27.1218h-5.70187Zm8.80091,0h5.70267v27.1218h-5.70267ZM335.71371,103.196q0,.11024-.10982,1.5353H320.72734a4.63562,4.63562,0,0,0,1.90035,2.88807,6.29855,6.29855,0,0,0,3.72884,1.05962,7.681,7.681,0,0,0,2.70473-.43854,6.78751,6.78751,0,0,0,2.22908-1.46182l3.03425,3.28948q-2.77822,3.18-8.11424,3.18044a12.99352,12.99352,0,0,1-5.88521-1.27929,9.63717,9.63717,0,0,1-3.94767-3.619,9.91988,9.91988,0,0,1-1.38914-5.227,10.05838,10.05838,0,0,1,1.35278-5.19062,9.59885,9.59885,0,0,1,3.76437-3.61819,11.618,11.618,0,0,1,10.60014-.07349,8.92359,8.92359,0,0,1,3.65531,3.58184A10.41611,10.41611,0,0,1,335.71371,103.196Zm-10.19794-5.8844a4.90619,4.90619,0,0,0-3.25311,1.09676,4.66535,4.66535,0,0,0-1.6088,2.99711h9.6867a4.63773,4.63773,0,0,0-1.6088-2.96076A4.75814,4.75814,0,0,0,325.51577,97.31164ZM350,112.00565a6.10346,6.10346,0,0,1-2.0829.95057,10.8611,10.8611,0,0,1-2.55858.29237,7.72568,7.72568,0,0,1-5.44662-1.79131,6.88983,6.88983,0,0,1-1.90036-5.26334V98.116h-3.03425V93.729h3.03425V88.94137h5.70187V93.729h4.89825v4.387h-4.89825v8.00442a2.80511,2.80511,0,0,0,.62106,1.9375,2.4705,2.4705,0,0,0,1.82768.65821,3.66594,3.66594,0,0,0,2.30333-.7317Z" transform="translate(-50 -61.89384)" style="fill: #fff"/>
    <g>
      <path d="M72.06757,86.09782c.5062,24.75725,2.79646,26.00038,9.8833,29.84591a74.24072,74.24072,0,0,1,6.39467,3.78919,74.06348,74.06348,0,0,1,6.4047-3.79344c7.09841-3.84822,9.39253-5.09174,9.89873-29.84127a29.46405,29.46405,0,0,1-16.30343-5.28349A29.42431,29.42431,0,0,1,72.06757,86.09782Z" transform="translate(-50 -61.89384)" style="fill: #fff"/>
      <path d="M100.49344,61.89384H75.71883A25.71882,25.71882,0,0,0,50,87.61272v24.77456a25.71882,25.71882,0,0,0,25.71883,25.71888h24.77461a25.7189,25.7189,0,0,0,25.71893-25.71888V87.61272A25.7189,25.7189,0,0,0,100.49344,61.89384Zm-3.45989,58.25731a63.59367,63.59367,0,0,0-7.29171,4.44471,2.39517,2.39517,0,0,1-2.7926,0,63.74426,63.74426,0,0,0-7.28323-4.44124c-9.29916-5.04582-11.99916-7.774-12.43129-36.3976a2.3958,2.3958,0,0,1,2.3952-2.43186l.42364.00232c2.80148.02276,10.22977.0706,16.75639-5.38072a2.396,2.396,0,0,1,3.07117,0c6.52663,5.45132,13.97653,5.39962,16.778,5.38072l.4275-.00232a2.3958,2.3958,0,0,1,2.3952,2.43186C109.05008,112.37368,106.34583,115.10263,97.03355,120.15115Z" transform="translate(-50 -61.89384)" style="fill: #fff"/>
    </g>
  </g>
</svg>
