<svg xmlns="http://www.w3.org/2000/svg" viewBox="0 0 300 109.89206">
  <title>yahoosvg</title>
  <path d="M107.54958,33.07863V66.157h16.27381V53.54747c0-8.33615.043-12.9223.12665-13.53213a8.54317,8.54317,0,0,1,1.24228-3.47713,5.11013,5.11013,0,0,1,4.9254-2.3096q4.26434.23878,5.022,5.0411c.07705.48954.1213,5.48462.12181,13.82688l.00076,13.06039H151.5364V50.91439c0-12.84754-.028-15.48215-.17828-16.76614-.53454-4.57014-2.08658-8.10906-4.7133-10.74644a14.21847,14.21847,0,0,0-8.518-4.0719,26.51008,26.51008,0,0,0-5.93042.18867,14.23952,14.23952,0,0,0-7.341,3.97261l-1.14971,1.144V0H107.54958ZM280.55321.50119c-.44248,1.01217-16.98508,41.0115-16.98508,41.069,0,.03281,4.3359.046,9.63309.02925l9.63566-.03,8.57775-20.69631C296.132,9.49017,299.99492.13715,300,.08845,300.00254.03974,295.67935,0,290.38978,0h-9.61785ZM71.87655,19.29548A21.02688,21.02688,0,0,0,62.84,22.63022,24.1947,24.1947,0,0,0,52.58592,39.43934a29.07563,29.07563,0,0,0,.52564,10.52344c2.00928,7.92519,7.33317,13.98632,14.33117,16.316a16.306,16.306,0,0,0,6.61552.99434,16.55592,16.55592,0,0,0,3.77364-.21463,14.64829,14.64829,0,0,0,7.69479-3.97531l1.03172-1.04113V66.157h15.68433V20.28345H86.5584v4.225l-.737-.77395a15.09762,15.09762,0,0,0-7.6358-4.12121A13.61187,13.61187,0,0,0,74.589,19.2806C73.29177,19.26,72.0711,19.26669,71.87655,19.29548Zm103.89876.12488a25.3105,25.3105,0,0,0-12.2606,5.20977,24.18993,24.18993,0,0,0-8.374,22.41982,23.43,23.43,0,0,0,17.6814,19.51952,24.92507,24.92507,0,0,0,6.58855.767,24.16393,24.16393,0,0,0,11.54092-2.60485,23.29188,23.29188,0,0,0,12.78015-17.86805,31.009,31.009,0,0,0-.00509-7.1811,24.43387,24.43387,0,0,0-4.26369-10.68314,29.92091,29.92091,0,0,0-4.35245-4.531,24.8222,24.8222,0,0,0-12.18685-5.05825A36.01413,36.01413,0,0,0,175.77531,19.42036Zm51.76984,0a25.00836,25.00836,0,0,0-12.03324,5.048,29.93529,29.93529,0,0,0-4.35271,4.531,24.434,24.434,0,0,0-4.26369,10.68314,31.00959,31.00959,0,0,0-.00508,7.1811,24.05863,24.05863,0,0,0,24.32131,20.4729,24.90135,24.90135,0,0,0,11.77972-2.7198c9.53444-4.89844,14.43771-15.46969,12.25068-26.40816C253.223,28.112,245.196,20.78843,234.6314,19.40348A36.12552,36.12552,0,0,0,227.54515,19.42036ZM0,20.3469c0,.03573,4.38689,10.42035,9.74867,23.07665,5.36169,12.65655,9.74611,23.06861,9.74315,23.138s-1.5774,3.83494-3.49853,8.36794-3.493,8.26139-3.493,8.28529,3.88617.02976,8.6358.013l8.63605-.03026L42.76741,51.88787C49.91469,34.66754,55.76652,20.51164,55.7711,20.43c.00661-.11793-1.74-.142-8.55638-.11793l-8.56528.03032L33.38759,33.68719c-2.894,7.33952-5.28829,13.31877-5.32034,13.287-.03229-.03179-2.39607-6.037-5.2533-13.34471L17.619,20.34243l-8.80949-.03019C3.96423,20.29561,0,20.31117,0,20.3469Zm79.832,13.867a9.15756,9.15756,0,0,1,6.74318,6.64781,11.26616,11.26616,0,0,1-.001,4.83512,9.25658,9.25658,0,0,1-6.67859,6.6763,11.39042,11.39042,0,0,1-4.83486.00152,9.48572,9.48572,0,0,1-6.34214-5.4658,9.8641,9.8641,0,0,1,.87685-8.8974A9.48906,9.48906,0,0,1,79.832,34.21386Zm101.30662.03356a8.93592,8.93592,0,0,1,7.148,6.86474,11.66691,11.66691,0,0,1-.06281,4.58463,9.04347,9.04347,0,0,1-6.38029,6.50083,13.34057,13.34057,0,0,1-4.83487.00432,8.91392,8.91392,0,0,1-5.78342-4.8542,8.22673,8.22673,0,0,1-.86539-4.06838,8.26952,8.26952,0,0,1,.68254-3.67447,9.06428,9.06428,0,0,1,3.30624-4.04321A9.619,9.619,0,0,1,181.13863,34.24742Zm51.76755.00026a8.8171,8.8171,0,0,1,6.67349,5.35721,8.26579,8.26579,0,0,1,.68257,3.67447,8.22379,8.22379,0,0,1-.86516,4.06838,8.91449,8.91449,0,0,1-5.78341,4.8542,13.342,13.342,0,0,1-4.83513-.00432,9.04584,9.04584,0,0,1-6.381-6.50083,11.26775,11.26775,0,0,1-.00076-4.82063,8.9391,8.9391,0,0,1,8.74051-6.78056A11.63589,11.63589,0,0,1,232.90618,34.24768Zm34.49433,11.35171a10.97765,10.97765,0,0,0-9.46273,8.57113,13.01439,13.01439,0,0,0,.06358,4.82851,10.43022,10.43022,0,0,0,8.06658,7.79677,13.37259,13.37259,0,0,0,2.215.18691A10.83526,10.83526,0,0,0,279.13418,56.087a10.19529,10.19529,0,0,0-4.94879-9.00955A11.20922,11.20922,0,0,0,267.40051,45.59939ZM133.34741,70.50612a5.28985,5.28985,0,0,0-3.00387,7.70649,6.36651,6.36651,0,0,0,2.41185,2.13109,6.66312,6.66312,0,0,0,4.432-.00382,6.108,6.108,0,0,0,2.60893-2.56111,5.21046,5.21046,0,0,0-2.596-6.9863,3.86224,3.86224,0,0,0-2.03776-.46869A4.55525,4.55525,0,0,0,133.34741,70.50612Zm-13.59241.24719a10.19148,10.19148,0,0,0-8.32089,8.0381,13.92007,13.92007,0,0,0-.31254,2.66666l-.06689,1.68046h-3.5084l.031,3.86214.03128,3.86215,1.73944.03279,1.73921.03256v18.2724h9.43425V90.92563l3.21366-.03154,3.21341-.03127.031-3.86215.031-3.86214h-6.50337l.08163-.855c.18132-1.89637.93509-2.95072,2.436-3.40669a6.28922,6.28922,0,0,1,3.559.12741c.383.13351.71459.24286.737.24286.02213,0,.04044-1.774.04044-3.94225v-3.942l-.678-.25481a10.87317,10.87317,0,0,0-4.1378-.57779A15.073,15.073,0,0,0,119.755,70.75331Zm38.62121,11.84837a7.716,7.716,0,0,0-4.65253,2.79482l-.53634.71359V83.13853H143.6351v26.062h9.55224l.00077-7.10506c.00025-4.0839.04984-7.40615.11622-7.81279a4.54483,4.54483,0,0,1,1.24279-2.47109,3.25314,3.25314,0,0,1,4.4646.50633c.71613,1.03349.70519.8982.752,9.24681l.043,7.6358h9.53673v-8.55435c0-9.07135-.04806-10.111-.54524-11.82676a8.41383,8.41383,0,0,0-2.28189-3.91885,7.3752,7.3752,0,0,0-3.543-2.11583A12.65822,12.65822,0,0,0,158.37621,82.60168Zm24.11609-.08621a13.49331,13.49331,0,0,0-5.05127,2.0024,13.87989,13.87989,0,0,0-5.3534,8.82138,20.64447,20.64447,0,0,0,.01321,5.76359,14.81337,14.81337,0,0,0,2.669,6.1837,11.69005,11.69005,0,0,0,6.93212,4.40815,13.55057,13.55057,0,0,0,5.27151-.12894,8.94243,8.94243,0,0,0,3.70676-2.08912l.95135-.89516v2.6191h9.43425v-26.062h-9.43425V85.8367l-.619-.65966a8.92826,8.92826,0,0,0-5.00779-2.57028A14.9322,14.9322,0,0,0,182.4923,82.51547Zm37.029.10478a8.53186,8.53186,0,0,0-4.604,2.84822l-.40791.5343V83.136l-4.8056.03078-4.80538.03077-.03,13.0014-.03,13.00165h9.671l.00154-7.40006c.00128-7.82449.01144-7.98749.55922-9.05074a2.93572,2.93572,0,0,1,2.66869-1.58942,2.691,2.691,0,0,1,2.20508.8237c1.02563,1.02129.98492.64517,1.0246,9.46273l.03484,7.75379h9.55326l-.0389-9.46375c-.03867-9.35846-.042-9.47468-.30288-10.466a14.87351,14.87351,0,0,0-.85218-2.2112,6.29343,6.29343,0,0,0-1.50195-2.12268,7.34832,7.34832,0,0,0-2.92221-1.92891A10.90836,10.90836,0,0,0,219.52129,82.62025Zm25.17757-.00789a13.43989,13.43989,0,0,0-9.6949,6.36376,13.88322,13.88322,0,0,0-1.46811,3.67955,10.40648,10.40648,0,0,0-.33212,3.455,12.56254,12.56254,0,0,0,.65483,4.85318,12.94677,12.94677,0,0,0,9.89683,8.66472,14.33044,14.33044,0,0,0,3.24291.21641,11.46676,11.46676,0,0,0,5.30686-.91982l.94321-.385.031-4.38017.03078-4.38017-.79725.46793a7.00693,7.00693,0,0,1-3.571,1.02053,5.95732,5.95732,0,0,1-3.40313-.62636,5.00726,5.00726,0,0,1-2.29231-2.38233,3.40978,3.40978,0,0,1-.37281-2.03115,4.37146,4.37146,0,0,1,.27388-1.91644,5.39117,5.39117,0,0,1,5.08893-3.23987c1.75724-.08544,2.47133.1091,4.98236,1.35851.04883.02416.08849-1.91849.08849-4.31659V83.75343l-.75248-.30135A15.76812,15.76812,0,0,0,244.69886,82.61236Zm21.70986.00077a14.32755,14.32755,0,0,0-9.1296,21.731,12.56826,12.56826,0,0,0,8.176,5.28473,25.17926,25.17926,0,0,0,7.3113-.0562,13.42221,13.42221,0,0,0,6.64247-3.48247,10.80826,10.80826,0,0,0,1.95561-2.59621c-.028-.02619-1.85389-.7413-4.05873-1.58941l-4.0104-1.54186-.59.59838a4.397,4.397,0,0,1-2.23535,1.3346c-2.80754.73088-5.61-.739-6.0652-3.18086l-.09918-.52641,8.977-.03,8.977-.03027-.00763-2.18168a15.0523,15.0523,0,0,0-.21872-3.17781,13.35638,13.35638,0,0,0-3.65691-7.02572,12.53825,12.53825,0,0,0-6.495-3.42372A20.7602,20.7602,0,0,0,266.40872,82.61313ZM130.19147,96.16967v13.0309h9.55224v-26.062h-9.55224Zm140.03946-6.28542a3.93484,3.93484,0,0,1,2.75414,2.79609l.10935.48217h-4.35118c-4.9081,0-4.51647.09739-4.09941-1.01647C265.361,90.23111,267.75653,89.26094,270.23093,89.88425Zm-82.19807,1.29593a5.5,5.5,0,0,1,3.2808,2.70913,5.20909,5.20909,0,0,1-2.95655,7.19584,6.67006,6.67006,0,0,1-3.46187.0674,5.32829,5.32829,0,0,1-3.42042-3.41356,4.62514,4.62514,0,0,1-.19912-1.862,3.69919,3.69919,0,0,1,.48216-1.9167A5.36154,5.36154,0,0,1,188.03286,91.18018Z" style="fill: #fff;fill-rule: evenodd"/>
</svg>
